<svg width="91" height="65" viewBox="0 0 91 65" fill="none" xmlns="http://www.w3.org/2000/svg">
<path d="M4.752 53C4.4 53 4.112 52.888 3.888 52.664C3.664 52.44 3.552 52.152 3.552 51.8V20.6C3.552 20.248 3.664 19.96 3.888 19.736C4.112 19.512 4.4 19.4 4.752 19.4H16.8C20 19.4 22.672 19.912 24.816 20.936C26.96 21.928 28.592 23.4 29.712 25.352C30.864 27.272 31.472 29.656 31.536 32.504C31.568 33.912 31.584 35.144 31.584 36.2C31.584 37.256 31.568 38.472 31.536 39.848C31.44 42.824 30.848 45.288 29.76 47.24C28.672 49.192 27.072 50.648 24.96 51.608C22.848 52.536 20.208 53 17.04 53H4.752ZM11.184 46.808H16.8C18.4 46.808 19.712 46.568 20.736 46.088C21.76 45.608 22.512 44.856 22.992 43.832C23.504 42.776 23.776 41.416 23.808 39.752C23.84 38.824 23.856 37.992 23.856 37.256C23.888 36.52 23.888 35.784 23.856 35.048C23.856 34.312 23.84 33.496 23.808 32.6C23.744 30.2 23.12 28.44 21.936 27.32C20.784 26.168 18.992 25.592 16.56 25.592H11.184V46.808ZM38.7833 53C38.4313 53 38.1433 52.888 37.9193 52.664C37.6953 52.44 37.5833 52.152 37.5833 51.8V20.6C37.5833 20.248 37.6953 19.96 37.9193 19.736C38.1433 19.512 38.4313 19.4 38.7833 19.4H53.0393C55.6953 19.4 57.8713 19.784 59.5673 20.552C61.2633 21.32 62.5113 22.408 63.3113 23.816C64.1433 25.224 64.5593 26.872 64.5593 28.76C64.5593 29.944 64.3353 30.984 63.8873 31.88C63.4713 32.776 62.9433 33.512 62.3033 34.088C61.6953 34.664 61.1033 35.096 60.5273 35.384C61.7753 35.96 62.8633 36.92 63.7913 38.264C64.7513 39.576 65.2313 41.144 65.2313 42.968C65.2313 44.984 64.7833 46.744 63.8873 48.248C62.9913 49.752 61.6633 50.92 59.9033 51.752C58.1433 52.584 55.9993 53 53.4713 53H38.7833ZM45.2153 47.384H52.5593C54.1273 47.384 55.3113 46.952 56.1113 46.088C56.9113 45.192 57.3113 44.136 57.3113 42.92C57.3113 41.672 56.8953 40.632 56.0633 39.8C55.2633 38.936 54.0953 38.504 52.5593 38.504H45.2153V47.384ZM45.2153 32.984H52.1273C53.6313 32.984 54.7513 32.616 55.4873 31.88C56.2553 31.112 56.6393 30.136 56.6393 28.952C56.6393 27.768 56.2553 26.824 55.4873 26.12C54.7513 25.384 53.6313 25.016 52.1273 25.016H45.2153V32.984Z" fill="#ED6A6D"/>
<path d="M3.888 52.664L2.47379 54.0782H2.47379L3.888 52.664ZM3.888 19.736L5.30221 21.1502L5.30222 21.1502L3.888 19.736ZM24.816 20.936L23.954 22.7407L23.9651 22.746L23.9762 22.7511L24.816 20.936ZM29.712 25.352L27.9773 26.3473L27.987 26.3643L27.997 26.381L29.712 25.352ZM31.536 32.504L29.5365 32.5489L29.5365 32.5494L31.536 32.504ZM31.536 39.848L33.535 39.9125L33.5353 39.9035L33.5355 39.8945L31.536 39.848ZM29.76 47.24L28.013 46.2663V46.2663L29.76 47.24ZM24.96 51.608L25.7645 53.439L25.7761 53.434L25.7876 53.4287L24.96 51.608ZM11.184 46.808H9.184V48.808H11.184V46.808ZM22.992 43.832L21.1924 42.9595L21.1867 42.9713L21.1811 42.9831L22.992 43.832ZM23.808 39.752L21.8092 39.6831L21.8087 39.6983L21.8084 39.7135L23.808 39.752ZM23.856 37.256L21.8579 37.1691L21.856 37.2125V37.256H23.856ZM23.856 35.048H21.856V35.0915L21.8579 35.1349L23.856 35.048ZM23.808 32.6L21.8087 32.6533L21.809 32.6623L21.8093 32.6714L23.808 32.6ZM21.936 27.32L20.5218 28.7342L20.5414 28.7538L20.5616 28.7729L21.936 27.32ZM11.184 25.592V23.592H9.184V25.592H11.184ZM4.752 51C4.7898 51 4.87994 51.0065 4.99689 51.052C5.11796 51.0991 5.22317 51.1707 5.30221 51.2498L2.47379 54.0782C3.11619 54.7206 3.93416 55 4.752 55V51ZM5.30221 51.2498C5.38125 51.3288 5.45293 51.434 5.50001 51.5551C5.54549 51.6721 5.552 51.7622 5.552 51.8H1.552C1.552 52.6178 1.83138 53.4358 2.47379 54.0782L5.30221 51.2498ZM5.552 51.8V20.6H1.552V51.8H5.552ZM5.552 20.6C5.552 20.6378 5.54549 20.7279 5.50001 20.8449C5.45293 20.966 5.38125 21.0712 5.30221 21.1502L2.47379 18.3218C1.83138 18.9642 1.552 19.7822 1.552 20.6H5.552ZM5.30222 21.1502C5.22318 21.2292 5.11796 21.3009 4.9969 21.348C4.87994 21.3935 4.7898 21.4 4.752 21.4V17.4C3.93416 17.4 3.11619 17.6794 2.47378 18.3218L5.30222 21.1502ZM4.752 21.4H16.8V17.4H4.752V21.4ZM16.8 21.4C19.8 21.4 22.1557 21.8818 23.954 22.7407L25.678 19.1313C23.1883 17.9422 20.2 17.4 16.8 17.4V21.4ZM23.9762 22.7511C25.764 23.5783 27.0741 24.7732 27.9773 26.3473L31.4467 24.3567C30.1099 22.0268 28.156 20.2777 25.6558 19.1209L23.9762 22.7511ZM27.997 26.381C28.928 27.9327 29.4782 29.9553 29.5365 32.5489L33.5355 32.4591C33.4658 29.3567 32.8 26.6113 31.427 24.323L27.997 26.381ZM29.5365 32.5494C29.5683 33.9469 29.584 35.1632 29.584 36.2H33.584C33.584 35.1248 33.5677 33.8771 33.5355 32.4586L29.5365 32.5494ZM29.584 36.2C29.584 37.2367 29.5683 38.4366 29.5365 39.8015L33.5355 39.8945C33.5677 38.5074 33.584 37.2753 33.584 36.2H29.584ZM29.537 39.7835C29.448 42.5422 28.9028 44.6699 28.013 46.2663L31.507 48.2137C32.7932 45.9061 33.432 43.1058 33.535 39.9125L29.537 39.7835ZM28.013 46.2663C27.1415 47.83 25.8712 48.9969 24.1324 49.7873L25.7876 53.4287C28.2728 52.2991 30.2026 50.554 31.507 48.2137L28.013 46.2663ZM24.1555 49.777C22.3729 50.5602 20.028 51 17.04 51V55C20.388 55 23.3231 54.5118 25.7645 53.439L24.1555 49.777ZM17.04 51H4.752V55H17.04V51ZM11.184 48.808H16.8V44.808H11.184V48.808ZM16.8 48.808C18.58 48.808 20.2087 48.544 21.5849 47.8989L19.8871 44.2771C19.2153 44.592 18.22 44.808 16.8 44.808V48.808ZM21.5849 47.8989C23.0321 47.2205 24.1245 46.1281 24.8029 44.6809L21.1811 42.9831C20.8995 43.5839 20.4879 43.9955 19.8871 44.2771L21.5849 47.8989ZM24.7916 44.7045C25.4711 43.3031 25.7722 41.6312 25.8076 39.7905L21.8084 39.7135C21.7798 41.2008 21.5369 42.2489 21.1924 42.9595L24.7916 44.7045ZM25.8068 39.8209C25.8394 38.8756 25.856 38.02 25.856 37.256H21.856C21.856 37.964 21.8406 38.7724 21.8092 39.6831L25.8068 39.8209ZM25.8541 37.3429C25.8886 36.549 25.8886 35.755 25.8541 34.9611L21.8579 35.1349C21.8874 35.813 21.8874 36.491 21.8579 37.1691L25.8541 37.3429ZM25.856 35.048C25.856 34.2837 25.8394 33.4435 25.8067 32.5286L21.8093 32.6714C21.8406 33.5485 21.856 34.3403 21.856 35.048H25.856ZM25.8073 32.5467C25.7358 29.8658 25.0304 27.4941 23.3104 25.8671L20.5616 28.7729C21.2096 29.3859 21.7522 30.5342 21.8087 32.6533L25.8073 32.5467ZM23.3502 25.9058C21.673 24.2286 19.2636 23.592 16.56 23.592V27.592C18.7204 27.592 19.895 28.1074 20.5218 28.7342L23.3502 25.9058ZM16.56 23.592H11.184V27.592H16.56V23.592ZM9.184 25.592V46.808H13.184V25.592H9.184ZM37.9193 52.664L36.505 54.0782L37.9193 52.664ZM37.9193 19.736L39.3335 21.1502L39.3335 21.1502L37.9193 19.736ZM59.5672 20.552L60.3923 18.7301L59.5672 20.552ZM63.3112 23.816L61.5723 24.804L61.5807 24.8188L61.5894 24.8335L63.3112 23.816ZM63.8873 31.88L62.0984 30.9856L62.0854 31.0115L62.0732 31.0378L63.8873 31.88ZM62.3033 34.088L60.9653 32.6014L60.9463 32.6185L60.9278 32.6361L62.3033 34.088ZM60.5273 35.384L59.6328 33.5951L55.9109 35.4561L59.6891 37.1999L60.5273 35.384ZM63.7913 38.264L62.1455 39.4004L62.161 39.4229L62.1772 39.445L63.7913 38.264ZM45.2153 47.384H43.2153V49.384H45.2153V47.384ZM56.1113 46.088L57.5788 47.4468L57.5911 47.4335L57.6031 47.42L56.1113 46.088ZM56.0633 39.8L54.5957 41.1588L54.6219 41.187L54.649 41.2142L56.0633 39.8ZM45.2153 38.504V36.504H43.2153V38.504H45.2153ZM45.2153 32.984H43.2153V34.984H45.2153V32.984ZM55.4873 26.12L54.073 27.5342L54.1038 27.5649L54.1358 27.5943L55.4873 26.12ZM45.2153 25.016V23.016H43.2153V25.016H45.2153ZM38.7832 51C38.821 51 38.9112 51.0065 39.0281 51.052C39.1492 51.0991 39.2544 51.1707 39.3335 51.2498L36.505 54.0782C37.1474 54.7206 37.9654 55 38.7832 55V51ZM39.3335 51.2498C39.4125 51.3288 39.4842 51.434 39.5313 51.5551C39.5767 51.6721 39.5833 51.7622 39.5833 51.8H35.5833C35.5833 52.6178 35.8626 53.4358 36.505 54.0782L39.3335 51.2498ZM39.5833 51.8V20.6H35.5833V51.8H39.5833ZM39.5833 20.6C39.5833 20.6378 39.5767 20.7279 39.5313 20.8449C39.4842 20.966 39.4125 21.0712 39.3335 21.1502L36.505 18.3218C35.8626 18.9642 35.5833 19.7822 35.5833 20.6H39.5833ZM39.3335 21.1502C39.2544 21.2292 39.1492 21.3009 39.0281 21.348C38.9112 21.3935 38.821 21.4 38.7832 21.4V17.4C37.9654 17.4 37.1474 17.6794 36.505 18.3218L39.3335 21.1502ZM38.7832 21.4H53.0393V17.4H38.7832V21.4ZM53.0393 21.4C55.5233 21.4 57.3914 21.7622 58.7422 22.3739L60.3923 18.7301C58.3511 17.8058 55.8673 17.4 53.0393 17.4V21.4ZM58.7422 22.3739C60.113 22.9946 61.0115 23.8169 61.5723 24.804L65.0502 22.828C64.011 20.9991 62.4135 19.6454 60.3923 18.7301L58.7422 22.3739ZM61.5894 24.8335C62.2127 25.8883 62.5592 27.1738 62.5592 28.76H66.5592C66.5592 26.5702 66.0738 24.5597 65.0331 22.7985L61.5894 24.8335ZM62.5592 28.76C62.5592 29.6897 62.3844 30.4135 62.0984 30.9856L65.6761 32.7744C66.2861 31.5545 66.5592 30.1983 66.5592 28.76H62.5592ZM62.0732 31.0378C61.7542 31.7249 61.3774 32.2305 60.9653 32.6014L63.6412 35.5746C64.5091 34.7935 65.1883 33.8271 65.7013 32.7222L62.0732 31.0378ZM60.9278 32.6361C60.4222 33.115 59.9891 33.417 59.6328 33.5951L61.4217 37.1729C62.2174 36.775 62.9683 36.213 63.6787 35.5399L60.9278 32.6361ZM59.6891 37.1999C60.5554 37.5997 61.3824 38.2953 62.1455 39.4004L65.437 37.1276C64.3441 35.5447 62.9951 34.3203 61.3654 33.5681L59.6891 37.1999ZM62.1772 39.445C62.8562 40.373 63.2313 41.5145 63.2313 42.968H67.2313C67.2313 40.7735 66.6463 38.779 65.4053 37.083L62.1772 39.445ZM63.2313 42.968C63.2313 44.6792 62.8541 46.0744 62.169 47.2244L65.6055 49.2716C66.7124 47.4136 67.2313 45.2888 67.2313 42.968H63.2313ZM62.169 47.2244C61.499 48.3492 60.4909 49.262 59.0485 49.9439L60.758 53.5601C62.8356 52.578 64.4835 51.1548 65.6055 49.2716L62.169 47.2244ZM59.0485 49.9439C57.6231 50.6177 55.7885 51 53.4713 51V55C56.21 55 58.6634 54.5503 60.758 53.5601L59.0485 49.9439ZM53.4713 51H38.7832V55H53.4713V51ZM45.2153 49.384H52.5592V45.384H45.2153V49.384ZM52.5592 49.384C54.4911 49.384 56.2863 48.8426 57.5788 47.4468L54.6437 44.7292C54.3362 45.0614 53.7634 45.384 52.5592 45.384V49.384ZM57.6031 47.42C58.7348 46.1525 59.3112 44.6207 59.3112 42.92H55.3112C55.3112 43.6513 55.0877 44.2315 54.6194 44.756L57.6031 47.42ZM59.3112 42.92C59.3112 41.1773 58.7091 39.6174 57.4775 38.3858L54.649 41.2142C55.0814 41.6466 55.3112 42.1667 55.3112 42.92H59.3112ZM57.5308 38.4412C56.2458 37.0535 54.4736 36.504 52.5592 36.504V40.504C53.7169 40.504 54.2807 40.8185 54.5957 41.1588L57.5308 38.4412ZM52.5592 36.504H45.2153V40.504H52.5592V36.504ZM43.2153 38.504V47.384H47.2153V38.504H43.2153ZM45.2153 34.984H52.1273V30.984H45.2153V34.984ZM52.1273 34.984C53.925 34.984 55.6509 34.5448 56.9015 33.2942L54.073 30.4658C53.8516 30.6872 53.3375 30.984 52.1273 30.984V34.984ZM56.9015 33.2942C58.0802 32.1155 58.6393 30.6138 58.6393 28.952H54.6393C54.6393 29.6582 54.4303 30.1085 54.073 30.4658L56.9015 33.2942ZM58.6393 28.952C58.6393 27.2918 58.0783 25.782 56.8387 24.6457L54.1358 27.5943C54.4322 27.866 54.6393 28.2442 54.6393 28.952H58.6393ZM56.9015 24.7058C55.6509 23.4552 53.925 23.016 52.1273 23.016V27.016C53.3375 27.016 53.8516 27.3128 54.073 27.5342L56.9015 24.7058ZM52.1273 23.016H45.2153V27.016H52.1273V23.016ZM43.2153 25.016V32.984H47.2153V25.016H43.2153Z" fill="white"/>
<path d="M78.676 13.14C78.004 13.14 77.4253 13.0467 76.94 12.86C76.464 12.664 76.0673 12.398 75.75 12.062C75.442 11.7167 75.2087 11.32 75.05 10.872C74.9007 10.4147 74.812 9.92933 74.784 9.416C74.7747 9.164 74.7653 8.884 74.756 8.576C74.756 8.25867 74.756 7.94133 74.756 7.624C74.7653 7.30667 74.7747 7.01733 74.784 6.756C74.8027 6.24267 74.8913 5.762 75.05 5.314C75.218 4.866 75.4607 4.474 75.778 4.138C76.0953 3.802 76.492 3.54067 76.968 3.354C77.4533 3.158 78.0227 3.06 78.676 3.06C79.3293 3.06 79.894 3.158 80.37 3.354C80.846 3.54067 81.2427 3.802 81.56 4.138C81.8773 4.474 82.1153 4.866 82.274 5.314C82.442 5.762 82.54 6.24267 82.568 6.756C82.5773 7.01733 82.582 7.30667 82.582 7.624C82.5913 7.94133 82.5913 8.25867 82.582 8.576C82.582 8.884 82.5773 9.164 82.568 9.416C82.54 9.92933 82.4467 10.4147 82.288 10.872C82.1293 11.32 81.8913 11.7167 81.574 12.062C81.266 12.398 80.8693 12.664 80.384 12.86C79.908 13.0467 79.3387 13.14 78.676 13.14ZM78.676 11.32C79.2173 11.32 79.614 11.1427 79.866 10.788C80.118 10.4333 80.2533 9.95267 80.272 9.346C80.2813 9.07533 80.286 8.79533 80.286 8.506C80.2953 8.21667 80.2953 7.92733 80.286 7.638C80.286 7.34867 80.2813 7.078 80.272 6.826C80.2533 6.24733 80.118 5.776 79.866 5.412C79.614 5.048 79.2173 4.86133 78.676 4.852C78.1253 4.86133 77.724 5.048 77.472 5.412C77.2293 5.776 77.0987 6.24733 77.08 6.826C77.0707 7.078 77.0613 7.34867 77.052 7.638C77.052 7.92733 77.052 8.21667 77.052 8.506C77.0613 8.79533 77.0707 9.07533 77.08 9.346C77.0987 9.95267 77.234 10.4333 77.486 10.788C77.738 11.1427 78.1347 11.32 78.676 11.32ZM87.2296 13C87.1362 13 87.0522 12.9673 86.9776 12.902C86.9122 12.8367 86.8796 12.7527 86.8796 12.65V5.692L84.8636 7.246C84.7796 7.31133 84.6909 7.33467 84.5976 7.316C84.5136 7.29733 84.4389 7.246 84.3736 7.162L83.6736 6.252C83.6176 6.168 83.5942 6.07933 83.6036 5.986C83.6222 5.89267 83.6736 5.818 83.7576 5.762L86.9496 3.298C87.0056 3.26067 87.0569 3.23733 87.1036 3.228C87.1596 3.20933 87.2202 3.2 87.2856 3.2H88.7696C88.8629 3.2 88.9422 3.23267 89.0076 3.298C89.0729 3.36333 89.1056 3.44733 89.1056 3.55V12.65C89.1056 12.7527 89.0729 12.8367 89.0076 12.902C88.9422 12.9673 88.8629 13 88.7696 13H87.2296Z" fill="white"/>
</svg>
