<svg width="97" height="56" viewBox="0 0 97 56" fill="none" xmlns="http://www.w3.org/2000/svg">
<path d="M4.752 54.8579C4.432 54.8579 4.144 54.7459 3.888 54.5219C3.664 54.2979 3.552 54.0099 3.552 53.6579V22.4579C3.552 22.1059 3.664 21.8179 3.888 21.5939C4.144 21.3699 4.432 21.2579 4.752 21.2579H9.216C9.696 21.2579 10.048 21.3859 10.272 21.6419C10.528 21.8979 10.704 22.0899 10.8 22.2179L19.632 38.4899L28.56 22.2179C28.624 22.0899 28.768 21.8979 28.992 21.6419C29.248 21.3859 29.616 21.2579 30.096 21.2579H34.56C34.912 21.2579 35.2 21.3699 35.424 21.5939C35.648 21.8179 35.76 22.1059 35.76 22.4579V53.6579C35.76 54.0099 35.648 54.2979 35.424 54.5219C35.2 54.7459 34.912 54.8579 34.56 54.8579H29.664C29.344 54.8579 29.072 54.7459 28.848 54.5219C28.624 54.2979 28.512 54.0099 28.512 53.6579V34.2659L22.416 45.6899C22.256 45.9779 22.048 46.2339 21.792 46.4579C21.536 46.6819 21.2 46.7939 20.784 46.7939H18.528C18.112 46.7939 17.776 46.6819 17.52 46.4579C17.264 46.2339 17.056 45.9779 16.896 45.6899L10.8 34.2659V53.6579C10.8 54.0099 10.688 54.2979 10.464 54.5219C10.24 54.7459 9.968 54.8579 9.648 54.8579H4.752ZM56.3681 55.3379C53.3601 55.3379 50.7841 54.8419 48.6401 53.8499C46.5281 52.8259 44.8801 51.3539 43.6961 49.4339C42.5441 47.4819 41.9201 45.1299 41.8241 42.3779C41.7921 41.0019 41.7761 39.5299 41.7761 37.9619C41.7761 36.3939 41.7921 34.9059 41.8241 33.4979C41.9201 30.8099 42.5441 28.5219 43.6961 26.6339C44.8801 24.7459 46.5441 23.3059 48.6881 22.3139C50.8641 21.2899 53.4241 20.7779 56.3681 20.7779C58.7361 20.7779 60.8161 21.0819 62.6081 21.6899C64.4001 22.2979 65.9041 23.0979 67.1201 24.0899C68.3361 25.0499 69.2641 26.1059 69.9041 27.2579C70.5441 28.4099 70.8801 29.5139 70.9121 30.5699C70.9121 30.8579 70.8161 31.1139 70.6241 31.3379C70.4321 31.5299 70.1761 31.6259 69.8561 31.6259H63.9041C63.5841 31.6259 63.3281 31.5619 63.1361 31.4339C62.9761 31.3059 62.8321 31.1139 62.7041 30.8579C62.4801 30.2819 62.1121 29.7059 61.6001 29.1299C61.1201 28.5219 60.4641 28.0099 59.6321 27.5939C58.8001 27.1779 57.7121 26.9699 56.3681 26.9699C54.3521 26.9699 52.7521 27.4979 51.5681 28.5539C50.4161 29.6099 49.7921 31.3379 49.6961 33.7379C49.6001 36.4899 49.6001 39.2899 49.6961 42.1379C49.7921 44.6339 50.4321 46.4259 51.6161 47.5139C52.8321 48.6019 54.4481 49.1459 56.4641 49.1459C57.7761 49.1459 58.9441 48.9219 59.9681 48.4739C61.0241 47.9939 61.8561 47.2579 62.4641 46.2659C63.0721 45.2739 63.3761 44.0099 63.3761 42.4739V41.2739H58.1441C57.8241 41.2739 57.5521 41.1619 57.3281 40.9379C57.1041 40.6819 56.9921 40.3939 56.9921 40.0739V37.0019C56.9921 36.6499 57.1041 36.3619 57.3281 36.1379C57.5521 35.9139 57.8241 35.8019 58.1441 35.8019H69.9041C70.2561 35.8019 70.5441 35.9139 70.7681 36.1379C70.9921 36.3619 71.1041 36.6499 71.1041 37.0019V42.2339C71.1041 44.9859 70.4961 47.3379 69.2801 49.2899C68.0961 51.2419 66.3841 52.7459 64.1441 53.8019C61.9361 54.8259 59.3441 55.3379 56.3681 55.3379Z" fill="#ED6A6D"/>
<path d="M3.888 54.5219L2.47379 55.9361L2.52087 55.9832L2.57099 56.0271L3.888 54.5219ZM3.888 21.5939L2.57099 20.0888L2.52087 20.1326L2.47379 20.1797L3.888 21.5939ZM10.272 21.6419L8.76685 22.9589L8.8107 23.009L8.85779 23.0561L10.272 21.6419ZM10.8 22.2179L12.5578 21.2638L12.4879 21.1351L12.4 21.0179L10.8 22.2179ZM19.632 38.4899L17.8742 39.444L19.6225 42.665L21.3854 39.452L19.632 38.4899ZM28.56 22.2179L30.3134 23.18L30.3318 23.1465L30.3489 23.1123L28.56 22.2179ZM28.992 21.6419L27.5778 20.2277L27.5307 20.2748L27.4868 20.3249L28.992 21.6419ZM35.424 21.5939L34.0098 23.0081L34.0098 23.0081L35.424 21.5939ZM28.848 54.5219L27.4338 55.9361L27.4338 55.9361L28.848 54.5219ZM28.512 34.2659H30.512L26.7475 33.3243L28.512 34.2659ZM22.416 45.6899L24.1643 46.6612L24.1725 46.6464L24.1805 46.6315L22.416 45.6899ZM21.792 46.4579L23.109 47.9631L23.109 47.9631L21.792 46.4579ZM17.52 46.4579L16.203 47.9631L16.203 47.9631L17.52 46.4579ZM16.896 45.6899L15.1315 46.6315L15.1395 46.6464L15.1477 46.6612L16.896 45.6899ZM10.8 34.2659L12.5645 33.3243L8.8 34.2659H10.8ZM10.464 54.5219L11.8782 55.9361L10.464 54.5219ZM4.752 52.8579C4.831 52.8579 4.92557 52.8728 5.02089 52.9099C5.1144 52.9463 5.1756 52.991 5.20501 53.0168L2.57099 56.0271C3.1666 56.5482 3.91536 56.8579 4.752 56.8579V52.8579ZM5.30221 53.1077C5.38125 53.1867 5.45293 53.292 5.50001 53.413C5.54549 53.53 5.552 53.6201 5.552 53.6579H1.552C1.552 54.4757 1.83138 55.2937 2.47379 55.9361L5.30221 53.1077ZM5.552 53.6579V22.4579H1.552V53.6579H5.552ZM5.552 22.4579C5.552 22.4957 5.54549 22.5858 5.50001 22.7028C5.45293 22.8239 5.38125 22.9291 5.30221 23.0081L2.47379 20.1797C1.83138 20.8221 1.552 21.6401 1.552 22.4579H5.552ZM5.20501 23.0991C5.1756 23.1248 5.1144 23.1696 5.0209 23.2059C4.92557 23.243 4.831 23.2579 4.752 23.2579V19.2579C3.91536 19.2579 3.16659 19.5676 2.57099 20.0888L5.20501 23.0991ZM4.752 23.2579H9.216V19.2579H4.752V23.2579ZM9.216 23.2579C9.28538 23.2579 9.25148 23.268 9.15651 23.2335C9.04834 23.1942 8.8988 23.1097 8.76685 22.9589L11.7772 20.3249C11.0373 19.4793 10.0276 19.2579 9.216 19.2579V23.2579ZM8.85779 23.0561C8.97254 23.1709 9.05913 23.2611 9.12169 23.3294C9.1891 23.4029 9.20799 23.4286 9.2 23.4179L12.4 21.0179C12.2117 20.7668 11.9471 20.4886 11.6862 20.2277L8.85779 23.0561ZM9.04223 23.172L17.8742 39.444L21.3898 37.5358L12.5578 21.2638L9.04223 23.172ZM21.3854 39.452L30.3134 23.18L26.8066 21.2559L17.8786 37.5279L21.3854 39.452ZM30.3489 23.1123C30.3223 23.1655 30.3023 23.1962 30.2999 23.1999C30.2962 23.2055 30.3004 23.1987 30.316 23.1779C30.3483 23.1348 30.4058 23.0633 30.4972 22.9589L27.4868 20.3249C27.262 20.5819 26.9613 20.9431 26.7711 21.3235L30.3489 23.1123ZM30.4062 23.0561C30.3049 23.1574 30.1959 23.2155 30.117 23.2429C30.0473 23.2672 30.0297 23.2579 30.096 23.2579V19.2579C29.2645 19.2579 28.3188 19.4867 27.5778 20.2277L30.4062 23.0561ZM30.096 23.2579H34.56V19.2579H30.096V23.2579ZM34.56 23.2579C34.5222 23.2579 34.4321 23.2514 34.3151 23.2059C34.194 23.1588 34.0888 23.0872 34.0098 23.0081L36.8382 20.1797C36.1958 19.5373 35.3778 19.2579 34.56 19.2579V23.2579ZM34.0098 23.0081C33.9308 22.9291 33.8591 22.8239 33.812 22.7028C33.7665 22.5858 33.76 22.4957 33.76 22.4579H37.76C37.76 21.6401 37.4806 20.8221 36.8382 20.1797L34.0098 23.0081ZM33.76 22.4579V53.6579H37.76V22.4579H33.76ZM33.76 53.6579C33.76 53.6201 33.7665 53.53 33.812 53.413C33.8591 53.292 33.9308 53.1867 34.0098 53.1077L36.8382 55.9361C37.4806 55.2937 37.76 54.4757 37.76 53.6579H33.76ZM34.0098 53.1077C34.0888 53.0287 34.194 52.957 34.3151 52.9099C34.4321 52.8644 34.5222 52.8579 34.56 52.8579V56.8579C35.3778 56.8579 36.1958 56.5785 36.8382 55.9361L34.0098 53.1077ZM34.56 52.8579H29.664V56.8579H34.56V52.8579ZM29.664 52.8579C29.7421 52.8579 29.8555 52.8727 29.9815 52.9246C30.1079 52.9766 30.202 53.0475 30.2622 53.1077L27.4338 55.9361C28.0371 56.5395 28.8196 56.8579 29.664 56.8579V52.8579ZM30.2622 53.1077C30.3413 53.1867 30.4129 53.292 30.46 53.413C30.5055 53.53 30.512 53.6201 30.512 53.6579H26.512C26.512 54.4757 26.7914 55.2937 27.4338 55.9361L30.2622 53.1077ZM30.512 53.6579V34.2659H26.512V53.6579H30.512ZM26.7475 33.3243L20.6515 44.7483L24.1805 46.6315L30.2765 35.2075L26.7475 33.3243ZM20.6677 44.7186C20.6232 44.7986 20.5633 44.8755 20.475 44.9528L23.109 47.9631C23.5328 47.5923 23.8888 47.1572 24.1643 46.6612L20.6677 44.7186ZM20.475 44.9528C20.5551 44.8827 20.6422 44.837 20.7155 44.8125C20.7835 44.7899 20.8136 44.7939 20.784 44.7939V48.7939C21.5718 48.7939 22.4117 48.5732 23.109 47.9631L20.475 44.9528ZM20.784 44.7939H18.528V48.7939H20.784V44.7939ZM18.528 44.7939C18.4984 44.7939 18.5285 44.7899 18.5965 44.8125C18.6698 44.837 18.7569 44.8827 18.837 44.9528L16.203 47.9631C16.9003 48.5732 17.7402 48.7939 18.528 48.7939V44.7939ZM18.837 44.9528C18.7488 44.8755 18.6888 44.7986 18.6443 44.7186L15.1477 46.6612C15.4232 47.1572 15.7793 47.5923 16.203 47.9631L18.837 44.9528ZM18.6605 44.7483L12.5645 33.3243L9.0355 35.2075L15.1315 46.6315L18.6605 44.7483ZM8.8 34.2659V53.6579H12.8V34.2659H8.8ZM8.8 53.6579C8.8 53.6201 8.80651 53.53 8.85199 53.413C8.89907 53.292 8.97075 53.1867 9.04979 53.1077L11.8782 55.9361C12.5206 55.2937 12.8 54.4757 12.8 53.6579H8.8ZM9.04979 53.1077C9.10999 53.0475 9.20406 52.9766 9.3305 52.9246C9.45654 52.8727 9.56987 52.8579 9.648 52.8579V56.8579C10.4924 56.8579 11.2749 56.5395 11.8782 55.9361L9.04979 53.1077ZM9.648 52.8579H4.752V56.8579H9.648V52.8579ZM48.6401 53.8499L47.7676 55.6495L47.7839 55.6574L47.8003 55.665L48.6401 53.8499ZM43.6961 49.4339L41.9737 50.4504L41.9836 50.4671L41.9938 50.4837L43.6961 49.4339ZM41.8241 42.3779L39.8247 42.4244L39.8249 42.436L39.8253 42.4476L41.8241 42.3779ZM41.8241 33.4979L39.8254 33.4265L39.8249 33.4395L39.8246 33.4525L41.8241 33.4979ZM43.6961 26.6339L42.0017 25.5713L41.9952 25.5817L41.9888 25.5922L43.6961 26.6339ZM48.6881 22.3139L49.528 24.1291L49.5397 24.1235L48.6881 22.3139ZM67.1201 24.0899L65.8559 25.6396L65.8683 25.6498L65.8808 25.6597L67.1201 24.0899ZM69.9041 27.2579L71.6524 26.2866V26.2866L69.9041 27.2579ZM70.9121 30.5699H72.9121V30.5396L72.9112 30.5093L70.9121 30.5699ZM70.6241 31.3379L72.0383 32.7521L72.0927 32.6978L72.1426 32.6395L70.6241 31.3379ZM63.1361 31.4339L61.8867 32.9956L61.9545 33.0499L62.0267 33.098L63.1361 31.4339ZM62.7041 30.8579L60.8401 31.5828L60.8738 31.6693L60.9153 31.7523L62.7041 30.8579ZM61.6001 29.1299L60.0304 30.3692L60.0665 30.415L60.1053 30.4586L61.6001 29.1299ZM59.6321 27.5939L58.7377 29.3828L59.6321 27.5939ZM51.5681 28.5539L50.2369 27.0613L50.2267 27.0704L50.2167 27.0796L51.5681 28.5539ZM49.6961 33.7379L47.6977 33.658L47.6973 33.6682L49.6961 33.7379ZM49.6961 42.1379L47.6972 42.2053L47.6976 42.2148L49.6961 42.1379ZM51.6161 47.5139L50.2629 48.9866L50.2726 48.9955L50.2825 49.0044L51.6161 47.5139ZM59.9681 48.4739L60.7698 50.3062L60.7828 50.3005L60.7957 50.2946L59.9681 48.4739ZM62.4641 46.2659L60.7589 45.2208V45.2208L62.4641 46.2659ZM63.3761 41.2739H65.3761V39.2739H63.3761V41.2739ZM57.3281 40.9379L55.823 42.2549L55.8668 42.305L55.9139 42.3521L57.3281 40.9379ZM69.2801 49.2899L67.5826 48.2324L67.5763 48.2425L67.5701 48.2527L69.2801 49.2899ZM64.1441 53.8019L64.9856 55.6163L64.997 55.611L64.1441 53.8019ZM56.3681 53.3379C53.5736 53.3379 51.2991 52.8765 49.48 52.0348L47.8003 55.665C50.2691 56.8073 53.1467 57.3379 56.3681 57.3379V53.3379ZM49.5127 52.0503C47.7284 51.1852 46.3745 49.9668 45.3985 48.3841L41.9938 50.4837C43.3858 52.741 45.3279 54.4667 47.7676 55.6495L49.5127 52.0503ZM45.4185 48.4174C44.4691 46.8086 43.9098 44.7976 43.8229 42.3082L39.8253 42.4476C39.9305 45.4622 40.6192 48.1552 41.9737 50.4504L45.4185 48.4174ZM43.8236 42.3314C43.792 40.9729 43.7761 39.5165 43.7761 37.9619H39.7761C39.7761 39.5433 39.7923 41.031 39.8247 42.4244L43.8236 42.3314ZM43.7761 37.9619C43.7761 36.4074 43.792 34.9346 43.8236 33.5434L39.8246 33.4525C39.7923 34.8772 39.7761 36.3804 39.7761 37.9619H43.7761ZM43.8228 33.5693C43.9092 31.1506 44.4651 29.2134 45.4034 27.6756L41.9888 25.5922C40.6232 27.8304 39.931 30.4692 39.8254 33.4265L43.8228 33.5693ZM45.3905 27.6965C46.356 26.1569 47.7135 24.9685 49.528 24.129L47.8483 20.4988C45.3747 21.6433 43.4043 23.3349 42.0017 25.5713L45.3905 27.6965ZM49.5397 24.1235C51.3964 23.2498 53.6539 22.7779 56.3681 22.7779V18.7779C53.1944 18.7779 50.3318 19.33 47.8365 20.5043L49.5397 24.1235ZM56.3681 22.7779C58.5701 22.7779 60.425 23.0612 61.9655 23.5839L63.2507 19.796C61.2072 19.1026 58.9021 18.7779 56.3681 18.7779V22.7779ZM61.9655 23.5839C63.5767 24.1305 64.8586 24.8261 65.8559 25.6396L68.3844 22.5402C66.9497 21.3697 65.2236 20.4653 63.2507 19.796L61.9655 23.5839ZM65.8808 25.6597C66.9252 26.4841 67.6647 27.3453 68.1558 28.2292L71.6524 26.2866C70.8635 24.8666 69.7471 23.6157 68.3594 22.5201L65.8808 25.6597ZM68.1558 28.2292C68.6783 29.1697 68.8928 29.963 68.913 30.6305L72.9112 30.5093C72.8674 29.0648 72.4099 27.6501 71.6524 26.2866L68.1558 28.2292ZM68.9121 30.5699C68.9121 30.487 68.9268 30.384 68.9675 30.2757C69.0078 30.168 69.0615 30.0878 69.1056 30.0363L72.1426 32.6395C72.637 32.0627 72.9121 31.3479 72.9121 30.5699H68.9121ZM69.2099 29.9237C69.3172 29.8164 69.4485 29.7328 69.5859 29.6812C69.7171 29.632 69.8164 29.6259 69.8561 29.6259V33.6259C70.6046 33.6259 71.4049 33.3856 72.0383 32.7521L69.2099 29.9237ZM69.8561 29.6259H63.9041V33.6259H69.8561V29.6259ZM63.9041 29.6259C63.8314 29.6259 64.0046 29.6092 64.2455 29.7698L62.0267 33.098C62.6517 33.5146 63.3369 33.6259 63.9041 33.6259V29.6259ZM64.3855 29.8722C64.4574 29.9296 64.4958 29.9774 64.5081 29.9939C64.5203 30.0101 64.5132 30.004 64.493 29.9635L60.9153 31.7523C61.1246 32.1711 61.4297 32.63 61.8867 32.9956L64.3855 29.8722ZM64.5681 30.133C64.2396 29.2882 63.7274 28.5127 63.0949 27.8012L60.1053 30.4586C60.4968 30.8991 60.7206 31.2756 60.8401 31.5828L64.5681 30.133ZM63.1699 27.8906C62.475 27.0104 61.5693 26.3264 60.5266 25.8051L58.7377 29.3828C59.3589 29.6934 59.7653 30.0334 60.0304 30.3692L63.1699 27.8906ZM60.5266 25.8051C59.3212 25.2024 57.8943 24.9699 56.3681 24.9699V28.9699C57.5299 28.9699 58.279 29.1534 58.7377 29.3828L60.5266 25.8051ZM56.3681 24.9699C53.9984 24.9699 51.8782 25.5974 50.2369 27.0613L52.8994 30.0465C53.626 29.3984 54.7058 28.9699 56.3681 28.9699V24.9699ZM50.2167 27.0796C48.5048 28.6489 47.8038 31.0056 47.6977 33.658L51.6945 33.8178C51.7804 31.6702 52.3275 30.571 52.9196 30.0282L50.2167 27.0796ZM47.6973 33.6682C47.5997 36.4674 47.5998 39.3132 47.6973 42.2053L51.695 42.0705C51.6005 39.2666 51.6006 36.5124 51.6949 33.8076L47.6973 33.6682ZM47.6976 42.2148C47.803 44.9559 48.5159 47.3812 50.2629 48.9866L52.9694 46.0413C52.3484 45.4706 51.7812 44.3119 51.6946 42.061L47.6976 42.2148ZM50.2825 49.0044C51.9463 50.493 54.0769 51.1459 56.4641 51.1459V47.1459C54.8193 47.1459 53.7179 46.7108 52.9497 46.0234L50.2825 49.0044ZM56.4641 51.1459C58.0047 51.1459 59.4529 50.8824 60.7698 50.3062L59.1665 46.6416C58.4353 46.9615 57.5476 47.1459 56.4641 47.1459V51.1459ZM60.7957 50.2946C62.2163 49.6489 63.3534 48.6422 64.1693 47.311L60.7589 45.2208C60.3588 45.8736 59.832 46.3389 59.1405 46.6532L60.7957 50.2946ZM64.1693 47.311C65.0225 45.919 65.3761 44.2636 65.3761 42.4739H61.3761C61.3761 43.7562 61.1217 44.6288 60.7589 45.2208L64.1693 47.311ZM65.3761 42.4739V41.2739H61.3761V42.4739H65.3761ZM63.3761 39.2739H58.1441V43.2739H63.3761V39.2739ZM58.1441 39.2739C58.2223 39.2739 58.3356 39.2887 58.4616 39.3406C58.5881 39.3926 58.6821 39.4635 58.7423 39.5237L55.9139 42.3521C56.5172 42.9555 57.2997 43.2739 58.1441 43.2739V39.2739ZM58.8333 39.6209C58.859 39.6503 58.9038 39.7115 58.9401 39.805C58.9772 39.9003 58.9921 39.9949 58.9921 40.0739H54.9921C54.9921 40.9105 55.3018 41.6593 55.823 42.2549L58.8333 39.6209ZM58.9921 40.0739V37.0019H54.9921V40.0739H58.9921ZM58.9921 37.0019C58.9921 37.0397 58.9856 37.1298 58.9401 37.2468C58.8931 37.3679 58.8214 37.4731 58.7423 37.5521L55.9139 34.7237C55.2715 35.3661 54.9921 36.1841 54.9921 37.0019H58.9921ZM58.7423 37.5521C58.6821 37.6123 58.5881 37.6832 58.4616 37.7353C58.3356 37.7872 58.2223 37.8019 58.1441 37.8019V33.8019C57.2997 33.8019 56.5172 34.1204 55.9139 34.7237L58.7423 37.5521ZM58.1441 37.8019H69.9041V33.8019H58.1441V37.8019ZM69.9041 37.8019C69.8663 37.8019 69.7762 37.7954 69.6592 37.7499C69.5382 37.7028 69.433 37.6312 69.3539 37.5521L72.1823 34.7237C71.5399 34.0813 70.722 33.8019 69.9041 33.8019V37.8019ZM69.3539 37.5521C69.2749 37.4731 69.2032 37.3679 69.1561 37.2468C69.1106 37.1298 69.1041 37.0397 69.1041 37.0019H73.1041C73.1041 36.1841 72.8247 35.3661 72.1823 34.7237L69.3539 37.5521ZM69.1041 37.0019V42.2339H73.1041V37.0019H69.1041ZM69.1041 42.2339C69.1041 44.6862 68.565 46.6553 67.5826 48.2324L70.9777 50.3474C72.4272 48.0205 73.1041 45.2856 73.1041 42.2339H69.1041ZM67.5701 48.2527C66.6071 49.8403 65.2074 51.0895 63.2913 51.9929L64.997 55.611C67.5608 54.4023 69.5851 52.6436 70.9901 50.3271L67.5701 48.2527ZM63.3027 51.9875C61.4103 52.8651 59.1169 53.3379 56.3681 53.3379V57.3379C59.5714 57.3379 62.4619 56.7867 64.9856 55.6163L63.3027 51.9875Z" fill="white"/>
<path d="M82.676 13.6546C82.004 13.6546 81.4253 13.5613 80.94 13.3746C80.464 13.1786 80.0673 12.9126 79.75 12.5766C79.442 12.2313 79.2087 11.8346 79.05 11.3866C78.9007 10.9293 78.812 10.444 78.784 9.93065C78.7747 9.67865 78.7653 9.39865 78.756 9.09065C78.756 8.77331 78.756 8.45598 78.756 8.13865C78.7653 7.82131 78.7747 7.53198 78.784 7.27065C78.8027 6.75731 78.8913 6.27665 79.05 5.82865C79.218 5.38065 79.4607 4.98865 79.778 4.65265C80.0953 4.31665 80.492 4.05531 80.968 3.86865C81.4533 3.67265 82.0227 3.57465 82.676 3.57465C83.3293 3.57465 83.894 3.67265 84.37 3.86865C84.846 4.05531 85.2427 4.31665 85.56 4.65265C85.8773 4.98865 86.1153 5.38065 86.274 5.82865C86.442 6.27665 86.54 6.75731 86.568 7.27065C86.5773 7.53198 86.582 7.82131 86.582 8.13865C86.5913 8.45598 86.5913 8.77331 86.582 9.09065C86.582 9.39865 86.5773 9.67865 86.568 9.93065C86.54 10.444 86.4467 10.9293 86.288 11.3866C86.1293 11.8346 85.8913 12.2313 85.574 12.5766C85.266 12.9126 84.8693 13.1786 84.384 13.3746C83.908 13.5613 83.3387 13.6546 82.676 13.6546ZM82.676 11.8346C83.2173 11.8346 83.614 11.6573 83.866 11.3026C84.118 10.948 84.2533 10.4673 84.272 9.86065C84.2813 9.58998 84.286 9.30998 84.286 9.02065C84.2953 8.73131 84.2953 8.44198 84.286 8.15265C84.286 7.86331 84.2813 7.59265 84.272 7.34065C84.2533 6.76198 84.118 6.29065 83.866 5.92665C83.614 5.56265 83.2173 5.37598 82.676 5.36665C82.1253 5.37598 81.724 5.56265 81.472 5.92665C81.2293 6.29065 81.0987 6.76198 81.08 7.34065C81.0707 7.59265 81.0613 7.86331 81.052 8.15265C81.052 8.44198 81.052 8.73131 81.052 9.02065C81.0613 9.30998 81.0707 9.58998 81.08 9.86065C81.0987 10.4673 81.234 10.948 81.486 11.3026C81.738 11.6573 82.1347 11.8346 82.676 11.8346ZM91.8036 13.6546C91.1129 13.6546 90.5202 13.5706 90.0256 13.4026C89.5309 13.2346 89.1249 13.02 88.8076 12.7586C88.4902 12.4973 88.2522 12.2126 88.0936 11.9046C87.9349 11.5873 87.8509 11.284 87.8416 10.9946C87.8416 10.9106 87.8696 10.8406 87.9256 10.7846C87.9816 10.7286 88.0516 10.7006 88.1356 10.7006H89.6756C89.7782 10.7006 89.8622 10.724 89.9276 10.7706C89.9929 10.808 90.0536 10.878 90.1096 10.9806C90.1842 11.1953 90.3056 11.368 90.4736 11.4986C90.6416 11.6293 90.8376 11.7226 91.0616 11.7786C91.2949 11.8253 91.5422 11.8486 91.8036 11.8486C92.3262 11.8486 92.7369 11.7273 93.0356 11.4846C93.3342 11.242 93.4836 10.9013 93.4836 10.4626C93.4836 10.0146 93.3436 9.69265 93.0636 9.49665C92.7836 9.30065 92.3869 9.20265 91.8736 9.20265H90.3756C90.2822 9.20265 90.2029 9.16998 90.1376 9.10465C90.0722 9.03931 90.0396 8.95998 90.0396 8.86665V8.18065C90.0396 8.06865 90.0582 7.97531 90.0956 7.90065C90.1422 7.82598 90.1889 7.76998 90.2356 7.73265L92.6436 5.52065H88.6956C88.5929 5.52065 88.5089 5.48798 88.4436 5.42265C88.3782 5.35731 88.3456 5.27798 88.3456 5.18465V4.06465C88.3456 3.96198 88.3782 3.87798 88.4436 3.81265C88.5089 3.74731 88.5929 3.71465 88.6956 3.71465H94.9116C95.0142 3.71465 95.0982 3.74731 95.1636 3.81265C95.2289 3.87798 95.2616 3.96198 95.2616 4.06465V5.07265C95.2616 5.17531 95.2429 5.26398 95.2056 5.33865C95.1682 5.40398 95.1216 5.45531 95.0656 5.49265L92.7836 7.74665L92.9236 7.76065C93.4742 7.81665 93.9642 7.95198 94.3936 8.16665C94.8229 8.38131 95.1589 8.68931 95.4016 9.09065C95.6536 9.48265 95.7796 9.98198 95.7796 10.5886C95.7796 11.2233 95.6069 11.7693 95.2616 12.2266C94.9162 12.684 94.4449 13.0386 93.8476 13.2906C93.2502 13.5333 92.5689 13.6546 91.8036 13.6546Z" fill="white"/>
</svg>
