<svg width="79" height="50" viewBox="0 0 79 50" fill="none" xmlns="http://www.w3.org/2000/svg">
<path d="M4.752 49.3125C4.4 49.3125 4.112 49.2005 3.888 48.9765C3.664 48.7525 3.552 48.4645 3.552 48.1125V16.9125C3.552 16.5605 3.664 16.2725 3.888 16.0485C4.112 15.8245 4.4 15.7125 4.752 15.7125H17.856C20.448 15.7125 22.688 16.1125 24.576 16.9125C26.496 17.7125 27.984 18.9285 29.04 20.5605C30.128 22.1605 30.672 24.1605 30.672 26.5605C30.672 28.9925 30.128 31.0085 29.04 32.6085C27.984 34.1765 26.496 35.3445 24.576 36.1125C22.688 36.8805 20.448 37.2645 17.856 37.2645H11.424V48.1125C11.424 48.4645 11.312 48.7525 11.088 48.9765C10.864 49.2005 10.576 49.3125 10.224 49.3125H4.752ZM11.28 31.3125H17.616C19.248 31.3125 20.512 30.9125 21.408 30.1125C22.336 29.3125 22.8 28.1125 22.8 26.5125C22.8 25.1045 22.384 23.9525 21.552 23.0565C20.752 22.1605 19.44 21.7125 17.616 21.7125H11.28V31.3125ZM31.3965 49.3125C31.1085 49.3125 30.8685 49.2165 30.6765 49.0245C30.4845 48.8005 30.3885 48.5605 30.3885 48.3045C30.3885 48.1445 30.4045 48.0005 30.4365 47.8725L41.8605 17.0085C41.9565 16.6565 42.1485 16.3525 42.4365 16.0965C42.7245 15.8405 43.1245 15.7125 43.6365 15.7125H49.7805C50.2925 15.7125 50.6925 15.8405 50.9805 16.0965C51.2685 16.3525 51.4605 16.6565 51.5565 17.0085L62.9805 47.8725C63.0125 48.0005 63.0285 48.1445 63.0285 48.3045C63.0285 48.5605 62.9325 48.8005 62.7405 49.0245C62.5485 49.2165 62.3085 49.3125 62.0205 49.3125H57.0285C56.5485 49.3125 56.1965 49.2005 55.9725 48.9765C55.7485 48.7525 55.6045 48.5445 55.5405 48.3525L53.4765 42.9765H39.9405L37.8765 48.3525C37.8125 48.5445 37.6685 48.7525 37.4445 48.9765C37.2205 49.2005 36.8685 49.3125 36.3885 49.3125H31.3965ZM41.7165 36.7845H51.6525L46.7085 22.9605L41.7165 36.7845Z" fill="#ED6A6D"/>
<path d="M3.888 48.9765L2.47379 50.3907H2.47379L3.888 48.9765ZM3.888 16.0485L5.30221 17.4627L5.30222 17.4627L3.888 16.0485ZM24.576 16.9125L23.7957 18.754L23.8068 18.7587L24.576 16.9125ZM29.04 20.5605L27.3609 21.647L27.3733 21.6662L27.3861 21.6851L29.04 20.5605ZM29.04 32.6085L27.3861 31.4839L27.3811 31.4913L29.04 32.6085ZM24.576 36.1125L23.8332 34.2555L23.8224 34.2599L24.576 36.1125ZM11.424 37.2645V35.2645H9.424V37.2645H11.424ZM11.088 48.9765L12.5022 50.3907L11.088 48.9765ZM11.28 31.3125H9.28V33.3125H11.28V31.3125ZM21.408 30.1125L20.1021 28.5977L20.0889 28.609L20.076 28.6206L21.408 30.1125ZM21.552 23.0565L20.0601 24.3885L20.0731 24.4031L20.0864 24.4174L21.552 23.0565ZM11.28 21.7125V19.7125H9.28V21.7125H11.28ZM4.752 47.3125C4.7898 47.3125 4.87994 47.319 4.99689 47.3645C5.11796 47.4116 5.22317 47.4832 5.30221 47.5623L2.47379 50.3907C3.11619 51.0331 3.93416 51.3125 4.752 51.3125V47.3125ZM5.30221 47.5623C5.38125 47.6413 5.45293 47.7465 5.50001 47.8676C5.54549 47.9846 5.552 48.0747 5.552 48.1125H1.552C1.552 48.9303 1.83138 49.7483 2.47379 50.3907L5.30221 47.5623ZM5.552 48.1125V16.9125H1.552V48.1125H5.552ZM5.552 16.9125C5.552 16.9503 5.54549 17.0404 5.50001 17.1574C5.45293 17.2785 5.38125 17.3837 5.30221 17.4627L2.47379 14.6343C1.83138 15.2767 1.552 16.0947 1.552 16.9125H5.552ZM5.30222 17.4627C5.22318 17.5417 5.11796 17.6134 4.9969 17.6605C4.87994 17.706 4.7898 17.7125 4.752 17.7125V13.7125C3.93416 13.7125 3.11619 13.9919 2.47378 14.6343L5.30222 17.4627ZM4.752 17.7125H17.856V13.7125H4.752V17.7125ZM17.856 17.7125C20.2481 17.7125 22.2104 18.0823 23.7957 18.754L25.3563 15.071C23.1656 14.1427 20.6479 13.7125 17.856 13.7125V17.7125ZM23.8068 18.7587C25.3812 19.4147 26.5401 20.3785 27.3609 21.647L30.7191 19.474C29.4279 17.4785 27.6108 16.0103 25.3452 15.0663L23.8068 18.7587ZM27.3861 21.6851C28.1996 22.8814 28.672 24.4646 28.672 26.5605H32.672C32.672 23.8564 32.0564 21.4396 30.6939 19.4359L27.3861 21.6851ZM28.672 26.5605C28.672 28.6947 28.1968 30.2918 27.3861 31.4839L30.6939 33.7331C32.0592 31.7252 32.672 29.2903 32.672 26.5605H28.672ZM27.3811 31.4913C26.5704 32.6951 25.4171 33.622 23.8332 34.2555L25.3188 37.9695C27.5749 37.067 29.3976 35.6579 30.6989 33.7257L27.3811 31.4913ZM23.8224 34.2599C22.2291 34.908 20.257 35.2645 17.856 35.2645V39.2645C20.639 39.2645 23.1469 38.853 25.3296 37.9651L23.8224 34.2599ZM17.856 35.2645H11.424V39.2645H17.856V35.2645ZM9.424 37.2645V48.1125H13.424V37.2645H9.424ZM9.424 48.1125C9.424 48.0747 9.43051 47.9846 9.47599 47.8676C9.52307 47.7465 9.59475 47.6413 9.67379 47.5623L12.5022 50.3907C13.1446 49.7483 13.424 48.9303 13.424 48.1125H9.424ZM9.67379 47.5623C9.75283 47.4832 9.85804 47.4116 9.97911 47.3645C10.0961 47.319 10.1862 47.3125 10.224 47.3125V51.3125C11.0418 51.3125 11.8598 51.0331 12.5022 50.3907L9.67379 47.5623ZM10.224 47.3125H4.752V51.3125H10.224V47.3125ZM11.28 33.3125H17.616V29.3125H11.28V33.3125ZM17.616 33.3125C19.5615 33.3125 21.3636 32.8333 22.74 31.6044L20.076 28.6206C19.6604 28.9917 18.9345 29.3125 17.616 29.3125V33.3125ZM22.7139 31.6273C24.2085 30.3389 24.8 28.5046 24.8 26.5125H20.8C20.8 27.7204 20.4635 28.2861 20.1021 28.5977L22.7139 31.6273ZM24.8 26.5125C24.8 24.6817 24.2451 23.0175 23.0176 21.6956L20.0864 24.4174C20.5229 24.8875 20.8 25.5273 20.8 26.5125H24.8ZM23.0439 21.7245C21.7042 20.224 19.714 19.7125 17.616 19.7125V23.7125C19.166 23.7125 19.7999 24.097 20.0601 24.3885L23.0439 21.7245ZM17.616 19.7125H11.28V23.7125H17.616V19.7125ZM9.28 21.7125V31.3125H13.28V21.7125H9.28ZM30.6765 49.0245L29.158 50.3261L29.208 50.3844L29.2623 50.4387L30.6765 49.0245ZM30.4365 47.8725L28.5609 47.1782L28.5228 47.2811L28.4962 47.3874L30.4365 47.8725ZM41.8605 17.0085L43.7361 17.7027L43.7668 17.6199L43.79 17.5347L41.8605 17.0085ZM51.5565 17.0085L49.627 17.5347L49.6502 17.6199L49.6809 17.7027L51.5565 17.0085ZM62.9805 47.8725L64.9208 47.3874L64.8942 47.2811L64.8561 47.1782L62.9805 47.8725ZM62.7405 49.0245L64.1547 50.4387L64.209 50.3844L64.259 50.3261L62.7405 49.0245ZM55.9725 48.9765L54.5583 50.3907L54.5583 50.3907L55.9725 48.9765ZM55.5405 48.3525L57.4379 47.72L57.4237 47.6775L57.4076 47.6357L55.5405 48.3525ZM53.4765 42.9765L55.3436 42.2597L54.851 40.9765H53.4765V42.9765ZM39.9405 42.9765V40.9765H38.566L38.0734 42.2597L39.9405 42.9765ZM37.8765 48.3525L36.0094 47.6357L35.9933 47.6775L35.9791 47.72L37.8765 48.3525ZM37.4445 48.9765L38.8587 50.3907L37.4445 48.9765ZM41.7165 36.7845L39.8354 36.1052L38.8679 38.7845H41.7165V36.7845ZM51.6525 36.7845V38.7845H54.4918L53.5357 36.111L51.6525 36.7845ZM46.7085 22.9605L48.5917 22.287L46.7176 17.0468L44.8274 22.2812L46.7085 22.9605ZM31.3965 47.3125C31.4779 47.3125 31.6015 47.3268 31.7433 47.3835C31.8874 47.4412 32.005 47.5246 32.0907 47.6103L29.2623 50.4387C29.8539 51.0303 30.6138 51.3125 31.3965 51.3125V47.3125ZM32.195 47.7229C32.2218 47.7542 32.2734 47.8236 32.3175 47.9337C32.363 48.0476 32.3885 48.1755 32.3885 48.3045H28.3885C28.3885 49.1098 28.7055 49.7981 29.158 50.3261L32.195 47.7229ZM32.3885 48.3045C32.3885 48.2908 32.3892 48.2889 32.3883 48.2974C32.3873 48.3058 32.3845 48.3267 32.3768 48.3576L28.4962 47.3874C28.4172 47.7034 28.3885 48.0143 28.3885 48.3045H32.3885ZM32.3121 48.5667L43.7361 17.7027L39.9849 16.3142L28.5609 47.1782L32.3121 48.5667ZM43.79 17.5347C43.7886 17.5398 43.786 17.5478 43.7818 17.5575C43.7775 17.5672 43.7726 17.5764 43.7675 17.5845C43.7564 17.602 43.7514 17.6036 43.7652 17.5913L41.1078 14.6017C40.5469 15.1002 40.1349 15.7345 39.931 16.4823L43.79 17.5347ZM43.7652 17.5913C43.7263 17.6259 43.6862 17.6537 43.6482 17.6749C43.6107 17.6958 43.5805 17.7075 43.5621 17.7133C43.5274 17.7244 43.5437 17.7125 43.6365 17.7125V13.7125C42.7983 13.7125 41.8681 13.9258 41.1078 14.6017L43.7652 17.5913ZM43.6365 17.7125H49.7805V13.7125H43.6365V17.7125ZM49.7805 17.7125C49.8733 17.7125 49.8896 17.7244 49.8549 17.7133C49.8365 17.7075 49.8063 17.6958 49.7688 17.6749C49.7308 17.6537 49.6907 17.6259 49.6518 17.5913L52.3092 14.6017C51.5489 13.9258 50.6187 13.7125 49.7805 13.7125V17.7125ZM49.6518 17.5913C49.6656 17.6036 49.6606 17.602 49.6495 17.5845C49.6444 17.5764 49.6395 17.5672 49.6352 17.5575C49.631 17.5478 49.6284 17.5398 49.627 17.5347L53.486 16.4823C53.2821 15.7345 52.8701 15.1002 52.3092 14.6017L49.6518 17.5913ZM49.6809 17.7027L61.1049 48.5667L64.8561 47.1782L53.4321 16.3142L49.6809 17.7027ZM61.0402 48.3576C61.0325 48.3267 61.0297 48.3058 61.0287 48.2974C61.0278 48.2889 61.0285 48.2908 61.0285 48.3045H65.0285C65.0285 48.0143 64.9998 47.7034 64.9208 47.3874L61.0402 48.3576ZM61.0285 48.3045C61.0285 48.1755 61.054 48.0476 61.0995 47.9337C61.1436 47.8236 61.1952 47.7542 61.222 47.7229L64.259 50.3261C64.7115 49.7981 65.0285 49.1097 65.0285 48.3045H61.0285ZM61.3263 47.6103C61.412 47.5246 61.5296 47.4412 61.6737 47.3835C61.8155 47.3268 61.9391 47.3125 62.0205 47.3125V51.3125C62.8032 51.3125 63.5631 51.0303 64.1547 50.4387L61.3263 47.6103ZM62.0205 47.3125H57.0285V51.3125H62.0205V47.3125ZM57.0285 47.3125C56.9362 47.3125 56.9422 47.3008 57.0109 47.3226C57.089 47.3475 57.2378 47.4134 57.3867 47.5623L54.5583 50.3907C55.3123 51.1447 56.287 51.3125 57.0285 51.3125V47.3125ZM57.3867 47.5623C57.3394 47.5149 57.3301 47.4985 57.3409 47.5141C57.3511 47.5288 57.3972 47.5979 57.4379 47.72L53.6431 48.985C53.8454 49.5917 54.2265 50.0589 54.5583 50.3907L57.3867 47.5623ZM57.4076 47.6357L55.3436 42.2597L51.6094 43.6933L53.6734 49.0693L57.4076 47.6357ZM53.4765 40.9765H39.9405V44.9765H53.4765V40.9765ZM38.0734 42.2597L36.0094 47.6357L39.7436 49.0693L41.8076 43.6933L38.0734 42.2597ZM35.9791 47.72C36.0198 47.5979 36.0659 47.5288 36.0761 47.5141C36.0869 47.4984 36.0776 47.5149 36.0303 47.5623L38.8587 50.3907C39.1905 50.0589 39.5716 49.5917 39.7739 48.985L35.9791 47.72ZM36.0303 47.5623C36.1792 47.4134 36.328 47.3475 36.4061 47.3226C36.4748 47.3008 36.4808 47.3125 36.3885 47.3125V51.3125C37.13 51.3125 38.1047 51.1447 38.8587 50.3907L36.0303 47.5623ZM36.3885 47.3125H31.3965V51.3125H36.3885V47.3125ZM41.7165 38.7845H51.6525V34.7845H41.7165V38.7845ZM53.5357 36.111L48.5917 22.287L44.8253 23.634L49.7693 37.458L53.5357 36.111ZM44.8274 22.2812L39.8354 36.1052L43.5976 37.4638L48.5896 23.6398L44.8274 22.2812Z" fill="white"/>
<path d="M64.676 13.14C64.004 13.14 63.4253 13.0467 62.94 12.86C62.464 12.664 62.0673 12.398 61.75 12.062C61.442 11.7167 61.2087 11.32 61.05 10.872C60.9007 10.4147 60.812 9.92933 60.784 9.416C60.7747 9.164 60.7653 8.884 60.756 8.576C60.756 8.25867 60.756 7.94133 60.756 7.624C60.7653 7.30667 60.7747 7.01733 60.784 6.756C60.8027 6.24267 60.8913 5.762 61.05 5.314C61.218 4.866 61.4607 4.474 61.778 4.138C62.0953 3.802 62.492 3.54067 62.968 3.354C63.4533 3.158 64.0227 3.06 64.676 3.06C65.3293 3.06 65.894 3.158 66.37 3.354C66.846 3.54067 67.2427 3.802 67.56 4.138C67.8773 4.474 68.1153 4.866 68.274 5.314C68.442 5.762 68.54 6.24267 68.568 6.756C68.5773 7.01733 68.582 7.30667 68.582 7.624C68.5913 7.94133 68.5913 8.25867 68.582 8.576C68.582 8.884 68.5773 9.164 68.568 9.416C68.54 9.92933 68.4467 10.4147 68.288 10.872C68.1293 11.32 67.8913 11.7167 67.574 12.062C67.266 12.398 66.8693 12.664 66.384 12.86C65.908 13.0467 65.3387 13.14 64.676 13.14ZM64.676 11.32C65.2173 11.32 65.614 11.1427 65.866 10.788C66.118 10.4333 66.2533 9.95267 66.272 9.346C66.2813 9.07533 66.286 8.79533 66.286 8.506C66.2953 8.21667 66.2953 7.92733 66.286 7.638C66.286 7.34867 66.2813 7.078 66.272 6.826C66.2533 6.24733 66.118 5.776 65.866 5.412C65.614 5.048 65.2173 4.86133 64.676 4.852C64.1253 4.86133 63.724 5.048 63.472 5.412C63.2293 5.776 63.0987 6.24733 63.08 6.826C63.0707 7.078 63.0613 7.34867 63.052 7.638C63.052 7.92733 63.052 8.21667 63.052 8.506C63.0613 8.79533 63.0707 9.07533 63.08 9.346C63.0987 9.95267 63.234 10.4333 63.486 10.788C63.738 11.1427 64.1347 11.32 64.676 11.32ZM70.3036 13C70.2009 13 70.1169 12.9673 70.0516 12.902C69.9862 12.8367 69.9536 12.7527 69.9536 12.65V11.81C69.9536 11.7353 69.9722 11.6373 70.0096 11.516C70.0562 11.3853 70.1542 11.2593 70.3036 11.138L72.1516 9.304C72.8329 8.78133 73.3836 8.338 73.8036 7.974C74.2329 7.61 74.5502 7.27867 74.7556 6.98C74.9609 6.68133 75.0636 6.392 75.0636 6.112C75.0636 5.748 74.9609 5.44933 74.7556 5.216C74.5596 4.97333 74.2376 4.852 73.7896 4.852C73.4909 4.852 73.2389 4.91733 73.0336 5.048C72.8376 5.16933 72.6836 5.33267 72.5716 5.538C72.4596 5.74333 72.3849 5.96733 72.3476 6.21C72.3196 6.33133 72.2589 6.41533 72.1656 6.462C72.0816 6.50867 71.9929 6.532 71.8996 6.532H70.4156C70.3222 6.532 70.2476 6.504 70.1916 6.448C70.1356 6.38267 70.1076 6.31267 70.1076 6.238C70.1169 5.80867 70.2056 5.40267 70.3736 5.02C70.5509 4.63733 70.7982 4.29667 71.1156 3.998C71.4329 3.69933 71.8156 3.466 72.2636 3.298C72.7116 3.12067 73.2202 3.032 73.7896 3.032C74.5736 3.032 75.2316 3.16267 75.7636 3.424C76.2956 3.676 76.6969 4.026 76.9676 4.474C77.2382 4.922 77.3736 5.44 77.3736 6.028C77.3736 6.476 77.2802 6.89133 77.0936 7.274C76.9162 7.65667 76.6549 8.02533 76.3096 8.38C75.9642 8.72533 75.5536 9.08467 75.0776 9.458L73.4256 11.11H77.2336C77.3362 11.11 77.4202 11.1427 77.4856 11.208C77.5509 11.2733 77.5836 11.3573 77.5836 11.46V12.65C77.5836 12.7527 77.5509 12.8367 77.4856 12.902C77.4202 12.9673 77.3362 13 77.2336 13H70.3036Z" fill="white"/>
</svg>
