<svg width="99" height="55" viewBox="0 0 99 55" fill="none" xmlns="http://www.w3.org/2000/svg">
<path d="M5.65923 54.5944C5.33923 54.5944 5.05123 54.4824 4.79523 54.2584C4.57123 54.0344 4.45923 53.7464 4.45923 53.3944V22.1944C4.45923 21.8424 4.57123 21.5544 4.79523 21.3304C5.05123 21.1064 5.33923 20.9944 5.65923 20.9944H10.1232C10.6032 20.9944 10.9552 21.1224 11.1792 21.3784C11.4352 21.6344 11.6112 21.8264 11.7072 21.9544L20.5392 38.2264L29.4672 21.9544C29.5312 21.8264 29.6752 21.6344 29.8992 21.3784C30.1552 21.1224 30.5232 20.9944 31.0032 20.9944H35.4672C35.8192 20.9944 36.1072 21.1064 36.3312 21.3304C36.5552 21.5544 36.6672 21.8424 36.6672 22.1944V53.3944C36.6672 53.7464 36.5552 54.0344 36.3312 54.2584C36.1072 54.4824 35.8192 54.5944 35.4672 54.5944H30.5712C30.2512 54.5944 29.9792 54.4824 29.7552 54.2584C29.5312 54.0344 29.4192 53.7464 29.4192 53.3944V34.0024L23.3232 45.4264C23.1632 45.7144 22.9552 45.9704 22.6992 46.1944C22.4432 46.4184 22.1072 46.5304 21.6912 46.5304H19.4352C19.0192 46.5304 18.6832 46.4184 18.4272 46.1944C18.1712 45.9704 17.9632 45.7144 17.8032 45.4264L11.7072 34.0024V53.3944C11.7072 53.7464 11.5952 54.0344 11.3712 54.2584C11.1472 54.4824 10.8752 54.5944 10.5552 54.5944H5.65923ZM44.9874 54.5944C44.6354 54.5944 44.3474 54.4824 44.1234 54.2584C43.8994 54.0344 43.7874 53.7464 43.7874 53.3944V22.1944C43.7874 21.8424 43.8994 21.5544 44.1234 21.3304C44.3474 21.1064 44.6354 20.9944 44.9874 20.9944H57.0354C60.2354 20.9944 62.9074 21.5064 65.0514 22.5304C67.1954 23.5224 68.8274 24.9944 69.9474 26.9464C71.0994 28.8664 71.7074 31.2504 71.7714 34.0984C71.8034 35.5064 71.8194 36.7384 71.8194 37.7944C71.8194 38.8504 71.8034 40.0664 71.7714 41.4424C71.6754 44.4184 71.0834 46.8824 69.9954 48.8344C68.9074 50.7864 67.3074 52.2424 65.1954 53.2024C63.0834 54.1304 60.4434 54.5944 57.2754 54.5944H44.9874ZM51.4194 48.4024H57.0354C58.6354 48.4024 59.9474 48.1624 60.9714 47.6824C61.9954 47.2024 62.7474 46.4504 63.2274 45.4264C63.7394 44.3704 64.0114 43.0104 64.0434 41.3464C64.0754 40.4184 64.0914 39.5864 64.0914 38.8504C64.1234 38.1144 64.1234 37.3784 64.0914 36.6424C64.0914 35.9064 64.0754 35.0904 64.0434 34.1944C63.9794 31.7944 63.3554 30.0344 62.1714 28.9144C61.0194 27.7624 59.2274 27.1864 56.7954 27.1864H51.4194V48.4024Z" fill="#ED6A6D"/>
<path d="M4.79523 54.2584L3.38101 55.6726L3.4281 55.7197L3.47822 55.7635L4.79523 54.2584ZM4.79523 21.3304L3.47821 19.8252L3.4281 19.8691L3.38102 19.9161L4.79523 21.3304ZM11.1792 21.3784L9.67407 22.6954L9.71792 22.7455L9.76501 22.7926L11.1792 21.3784ZM11.7072 21.9544L13.465 21.0003L13.3951 20.8715L13.3072 20.7544L11.7072 21.9544ZM20.5392 38.2264L18.7815 39.1804L20.5297 42.4014L22.2926 39.1884L20.5392 38.2264ZM29.4672 21.9544L31.2206 22.9164L31.239 22.8829L31.2561 22.8488L29.4672 21.9544ZM29.8992 21.3784L28.485 19.9641L28.4379 20.0112L28.3941 20.0613L29.8992 21.3784ZM36.3312 21.3304L34.917 22.7446L34.917 22.7446L36.3312 21.3304ZM29.7552 54.2584L28.341 55.6726L28.341 55.6726L29.7552 54.2584ZM29.4192 34.0024H31.4192L27.6547 33.0608L29.4192 34.0024ZM23.3232 45.4264L25.0715 46.3976L25.0798 46.3829L25.0877 46.3679L23.3232 45.4264ZM22.6992 46.1944L24.0162 47.6995L24.0162 47.6995L22.6992 46.1944ZM18.4272 46.1944L17.1102 47.6995L17.1102 47.6995L18.4272 46.1944ZM17.8032 45.4264L16.0387 46.3679L16.0467 46.3829L16.0549 46.3976L17.8032 45.4264ZM11.7072 34.0024L13.4717 33.0608L9.70723 34.0024H11.7072ZM11.3712 54.2584L12.7854 55.6726L11.3712 54.2584ZM5.65923 52.5944C5.73823 52.5944 5.83279 52.6093 5.92812 52.6464C6.02162 52.6827 6.08282 52.7275 6.11224 52.7532L3.47822 55.7635C4.07382 56.2847 4.82259 56.5944 5.65923 56.5944V52.5944ZM6.20944 52.8441C6.28848 52.9232 6.36016 53.0284 6.40724 53.1495C6.45272 53.2664 6.45923 53.3566 6.45923 53.3944H2.45923C2.45923 54.2122 2.73861 55.0302 3.38101 55.6726L6.20944 52.8441ZM6.45923 53.3944V22.1944H2.45923V53.3944H6.45923ZM6.45923 22.1944C6.45923 22.2322 6.45272 22.3223 6.40724 22.4393C6.36015 22.5603 6.28848 22.6655 6.20944 22.7446L3.38102 19.9161C2.7386 20.5586 2.45923 21.3765 2.45923 22.1944H6.45923ZM6.11224 22.8355C6.08283 22.8612 6.02163 22.906 5.92812 22.9424C5.8328 22.9794 5.73823 22.9944 5.65923 22.9944V18.9944C4.82259 18.9944 4.07382 19.3041 3.47821 19.8252L6.11224 22.8355ZM5.65923 22.9944H10.1232V18.9944H5.65923V22.9944ZM10.1232 22.9944C10.1926 22.9944 10.1587 23.0045 10.0637 22.9699C9.95557 22.9306 9.80603 22.8462 9.67407 22.6954L12.6844 20.0614C11.9445 19.2158 10.9348 18.9944 10.1232 18.9944V22.9944ZM9.76501 22.7926C9.87976 22.9073 9.96636 22.9976 10.0289 23.0658C10.0963 23.1393 10.1152 23.165 10.1072 23.1544L13.3072 20.7544C13.1189 20.5032 12.8543 20.225 12.5934 19.9641L9.76501 22.7926ZM9.94946 22.9084L18.7815 39.1804L22.297 37.2723L13.465 21.0003L9.94946 22.9084ZM22.2926 39.1884L31.2206 22.9164L27.7138 20.9923L18.7858 37.2643L22.2926 39.1884ZM31.2561 22.8488C31.2295 22.9019 31.2095 22.9326 31.2071 22.9363C31.2035 22.9419 31.2076 22.9352 31.2232 22.9144C31.2556 22.8712 31.313 22.7998 31.4044 22.6954L28.3941 20.0613C28.1692 20.3183 27.8686 20.6795 27.6784 21.0599L31.2561 22.8488ZM31.3134 22.7926C31.2121 22.8939 31.1031 22.9519 31.0243 22.9794C30.9545 23.0036 30.937 22.9944 31.0032 22.9944V18.9944C30.1717 18.9944 29.226 19.2231 28.485 19.9641L31.3134 22.7926ZM31.0032 22.9944H35.4672V18.9944H31.0032V22.9944ZM35.4672 22.9944C35.4294 22.9944 35.3393 22.9879 35.2223 22.9424C35.1013 22.8953 34.9961 22.8236 34.917 22.7446L37.7454 19.9161C37.103 19.2737 36.2851 18.9944 35.4672 18.9944V22.9944ZM34.917 22.7446C34.838 22.6655 34.7663 22.5603 34.7192 22.4393C34.6737 22.3223 34.6672 22.2322 34.6672 22.1944H38.6672C38.6672 21.3765 38.3878 20.5585 37.7454 19.9161L34.917 22.7446ZM34.6672 22.1944V53.3944H38.6672V22.1944H34.6672ZM34.6672 53.3944C34.6672 53.3566 34.6737 53.2664 34.7192 53.1495C34.7663 53.0284 34.838 52.9232 34.917 52.8441L37.7454 55.6726C38.3878 55.0302 38.6672 54.2122 38.6672 53.3944H34.6672ZM34.917 52.8441C34.9961 52.7651 35.1013 52.6934 35.2223 52.6464C35.3393 52.6009 35.4294 52.5944 35.4672 52.5944V56.5944C36.2851 56.5944 37.103 56.315 37.7454 55.6726L34.917 52.8441ZM35.4672 52.5944H30.5712V56.5944H35.4672V52.5944ZM30.5712 52.5944C30.6494 52.5944 30.7627 52.6091 30.8887 52.661C31.0152 52.7131 31.1092 52.7839 31.1694 52.8441L28.341 55.6726C28.9443 56.2759 29.7268 56.5944 30.5712 56.5944V52.5944ZM31.1694 52.8442C31.2485 52.9232 31.3202 53.0284 31.3672 53.1495C31.4127 53.2664 31.4192 53.3566 31.4192 53.3944H27.4192C27.4192 54.2122 27.6986 55.0302 28.341 55.6726L31.1694 52.8442ZM31.4192 53.3944V34.0024H27.4192V53.3944H31.4192ZM27.6547 33.0608L21.5587 44.4848L25.0877 46.3679L31.1837 34.9439L27.6547 33.0608ZM21.5749 44.4551C21.5305 44.5351 21.4705 44.612 21.3822 44.6892L24.0162 47.6995C24.44 47.3287 24.796 46.8937 25.0715 46.3976L21.5749 44.4551ZM21.3822 44.6892C21.4623 44.6191 21.5494 44.5735 21.6228 44.549C21.6907 44.5263 21.7209 44.5304 21.6912 44.5304V48.5304C22.479 48.5304 23.319 48.3096 24.0162 47.6995L21.3822 44.6892ZM21.6912 44.5304H19.4352V48.5304H21.6912V44.5304ZM19.4352 44.5304C19.4056 44.5304 19.4357 44.5263 19.5037 44.549C19.5771 44.5735 19.6641 44.6191 19.7442 44.6892L17.1102 47.6995C17.8075 48.3096 18.6474 48.5304 19.4352 48.5304V44.5304ZM19.7442 44.6892C19.656 44.612 19.596 44.5351 19.5515 44.4551L16.0549 46.3976C16.3305 46.8937 16.6865 47.3287 17.1102 47.6995L19.7442 44.6892ZM19.5677 44.4848L13.4717 33.0608L9.94273 34.9439L16.0387 46.3679L19.5677 44.4848ZM9.70723 34.0024V53.3944H13.7072V34.0024H9.70723ZM9.70723 53.3944C9.70723 53.3566 9.71373 53.2664 9.75922 53.1495C9.8063 53.0284 9.87797 52.9232 9.95701 52.8441L12.7854 55.6726C13.4278 55.0302 13.7072 54.2122 13.7072 53.3944H9.70723ZM9.95701 52.8441C10.0172 52.7839 10.1113 52.7131 10.2377 52.661C10.3638 52.6091 10.4771 52.5944 10.5552 52.5944V56.5944C11.3996 56.5944 12.1821 56.2759 12.7854 55.6726L9.95701 52.8441ZM10.5552 52.5944H5.65923V56.5944H10.5552V52.5944ZM44.1234 54.2584L42.7091 55.6726L44.1234 54.2584ZM44.1234 21.3304L45.5376 22.7446L45.5376 22.7446L44.1234 21.3304ZM65.0514 22.5304L64.1894 24.3351L64.2004 24.3404L64.2115 24.3455L65.0514 22.5304ZM69.9473 26.9464L68.2126 27.9417L68.2223 27.9586L68.2324 27.9754L69.9473 26.9464ZM71.7714 34.0984L69.7719 34.1433L69.7719 34.1438L71.7714 34.0984ZM71.7714 41.4424L73.7703 41.5068L73.7706 41.4979L73.7708 41.4889L71.7714 41.4424ZM69.9954 48.8344L68.2484 47.8606V47.8606L69.9954 48.8344ZM65.1954 53.2024L65.9999 55.0334L66.0115 55.0283L66.023 55.0231L65.1954 53.2024ZM51.4194 48.4024H49.4194V50.4024H51.4194V48.4024ZM63.2274 45.4264L61.4277 44.5538L61.422 44.5656L61.4164 44.5775L63.2274 45.4264ZM64.0434 41.3464L62.0445 41.2774L62.044 41.2927L62.0437 41.3079L64.0434 41.3464ZM64.0914 38.8504L62.0932 38.7635L62.0914 38.8069V38.8504H64.0914ZM64.0914 36.6424H62.0914V36.6858L62.0932 36.7292L64.0914 36.6424ZM64.0434 34.1944L62.0441 34.2477L62.0443 34.2567L62.0446 34.2657L64.0434 34.1944ZM62.1714 28.9144L60.7571 30.3286L60.7768 30.3482L60.797 30.3673L62.1714 28.9144ZM51.4194 27.1864V25.1864H49.4194V27.1864H51.4194ZM44.9874 52.5944C45.0251 52.5944 45.1153 52.6009 45.2322 52.6464C45.3533 52.6934 45.4585 52.7651 45.5376 52.8441L42.7091 55.6726C43.3515 56.315 44.1695 56.5944 44.9874 56.5944V52.5944ZM45.5376 52.8441C45.6166 52.9232 45.6883 53.0284 45.7354 53.1495C45.7808 53.2664 45.7874 53.3566 45.7874 53.3944H41.7874C41.7874 54.2122 42.0667 55.0302 42.7091 55.6726L45.5376 52.8441ZM45.7874 53.3944V22.1944H41.7874V53.3944H45.7874ZM45.7874 22.1944C45.7874 22.2322 45.7808 22.3223 45.7354 22.4393C45.6883 22.5603 45.6166 22.6655 45.5376 22.7446L42.7091 19.9161C42.0667 20.5586 41.7874 21.3765 41.7874 22.1944H45.7874ZM45.5376 22.7446C45.4585 22.8236 45.3533 22.8953 45.2322 22.9424C45.1153 22.9879 45.0252 22.9944 44.9874 22.9944V18.9944C44.1695 18.9944 43.3515 19.2737 42.7091 19.9161L45.5376 22.7446ZM44.9874 22.9944H57.0354V18.9944H44.9874V22.9944ZM57.0354 22.9944C60.0353 22.9944 62.391 23.4762 64.1894 24.3351L65.9133 20.7256C63.4237 19.5366 60.4354 18.9944 57.0354 18.9944V22.9944ZM64.2115 24.3455C65.9994 25.1727 67.3094 26.3676 68.2126 27.9417L71.6821 25.951C70.3453 23.6211 68.3913 21.872 65.8912 20.7152L64.2115 24.3455ZM68.2324 27.9754C69.1634 29.527 69.7136 31.5497 69.7719 34.1433L73.7708 34.0534C73.7011 30.951 73.0353 28.2057 71.6623 25.9174L68.2324 27.9754ZM69.7719 34.1438C69.8036 35.5413 69.8194 36.7575 69.8194 37.7944H73.8194C73.8194 36.7192 73.8031 35.4714 73.7708 34.0529L69.7719 34.1438ZM69.8194 37.7944C69.8194 38.831 69.8036 40.031 69.7719 41.3959L73.7708 41.4889C73.8031 40.1017 73.8194 38.8697 73.8194 37.7944H69.8194ZM69.7724 41.3779C69.6834 44.1366 69.1382 46.2642 68.2484 47.8606L71.7423 49.8081C73.0285 47.5005 73.6673 44.7001 73.7703 41.5068L69.7724 41.3779ZM68.2484 47.8606C67.3768 49.4244 66.1065 50.5913 64.3677 51.3816L66.023 55.0231C68.5082 53.8935 70.4379 52.1483 71.7423 49.8081L68.2484 47.8606ZM64.3908 51.3713C62.6083 52.1546 60.2634 52.5944 57.2754 52.5944V56.5944C60.6233 56.5944 63.5584 56.1062 65.9999 55.0334L64.3908 51.3713ZM57.2754 52.5944H44.9874V56.5944H57.2754V52.5944ZM51.4194 50.4024H57.0354V46.4024H51.4194V50.4024ZM57.0354 50.4024C58.8153 50.4024 60.4441 50.1383 61.8202 49.4933L60.1225 45.8714C59.4506 46.1864 58.4554 46.4024 57.0354 46.4024V50.4024ZM61.8202 49.4933C63.2675 48.8149 64.3599 47.7225 65.0383 46.2752L61.4164 44.5775C61.1348 45.1782 60.7232 45.5898 60.1225 45.8714L61.8202 49.4933ZM65.027 46.2989C65.7065 44.8975 66.0076 43.2255 66.043 41.3848L62.0437 41.3079C62.0151 42.7952 61.7722 43.8433 61.4277 44.5538L65.027 46.2989ZM66.0422 41.4153C66.0748 40.4699 66.0914 39.6143 66.0914 38.8504H62.0914C62.0914 39.5584 62.0759 40.3668 62.0445 41.2774L66.0422 41.4153ZM66.0895 38.9372C66.124 38.1433 66.124 37.3494 66.0895 36.5555L62.0932 36.7292C62.1227 37.4073 62.1227 38.0854 62.0932 38.7635L66.0895 38.9372ZM66.0914 36.6424C66.0914 35.8781 66.0748 35.0379 66.0421 34.123L62.0446 34.2657C62.076 35.1429 62.0914 35.9346 62.0914 36.6424H66.0914ZM66.0426 34.141C65.9712 31.4602 65.2657 29.0884 63.5458 27.4614L60.797 30.3673C61.445 30.9803 61.9876 32.1286 62.0441 34.2477L66.0426 34.141ZM63.5856 27.5001C61.9084 25.8229 59.499 25.1864 56.7954 25.1864V29.1864C58.9557 29.1864 60.1303 29.7018 60.7571 30.3286L63.5856 27.5001ZM56.7954 25.1864H51.4194V29.1864H56.7954V25.1864ZM49.4194 27.1864V48.4024H53.4194V27.1864H49.4194Z" fill="white"/>
<path d="M84.2341 13.7502C83.5621 13.7502 82.9834 13.6569 82.4981 13.4702C82.0221 13.2742 81.6254 13.0082 81.3081 12.6722C81.0001 12.3269 80.7668 11.9302 80.6081 11.4822C80.4588 11.0249 80.3701 10.5396 80.3421 10.0262C80.3328 9.77423 80.3234 9.49423 80.3141 9.18623C80.3141 8.8689 80.3141 8.55156 80.3141 8.23423C80.3234 7.9169 80.3328 7.62756 80.3421 7.36623C80.3608 6.8529 80.4494 6.37223 80.6081 5.92423C80.7761 5.47623 81.0188 5.08423 81.3361 4.74823C81.6534 4.41223 82.0501 4.1509 82.5261 3.96423C83.0114 3.76823 83.5808 3.67023 84.2341 3.67023C84.8874 3.67023 85.4521 3.76823 85.9281 3.96423C86.4041 4.1509 86.8008 4.41223 87.1181 4.74823C87.4354 5.08423 87.6734 5.47623 87.8321 5.92423C88.0001 6.37223 88.0981 6.8529 88.1261 7.36623C88.1354 7.62756 88.1401 7.9169 88.1401 8.23423C88.1494 8.55156 88.1494 8.8689 88.1401 9.18623C88.1401 9.49423 88.1354 9.77423 88.1261 10.0262C88.0981 10.5396 88.0048 11.0249 87.8461 11.4822C87.6874 11.9302 87.4494 12.3269 87.1321 12.6722C86.8241 13.0082 86.4274 13.2742 85.9421 13.4702C85.4661 13.6569 84.8968 13.7502 84.2341 13.7502ZM84.2341 11.9302C84.7754 11.9302 85.1721 11.7529 85.4241 11.3982C85.6761 11.0436 85.8114 10.5629 85.8301 9.95623C85.8394 9.68556 85.8441 9.40556 85.8441 9.11623C85.8534 8.8269 85.8534 8.53756 85.8441 8.24823C85.8441 7.9589 85.8394 7.68823 85.8301 7.43623C85.8114 6.85756 85.6761 6.38623 85.4241 6.02223C85.1721 5.65823 84.7754 5.47156 84.2341 5.46223C83.6834 5.47156 83.2821 5.65823 83.0301 6.02223C82.7874 6.38623 82.6568 6.85756 82.6381 7.43623C82.6288 7.68823 82.6194 7.9589 82.6101 8.24823C82.6101 8.53756 82.6101 8.8269 82.6101 9.11623C82.6194 9.40556 82.6288 9.68556 82.6381 9.95623C82.6568 10.5629 82.7921 11.0436 83.0441 11.3982C83.2961 11.7529 83.6928 11.9302 84.2341 11.9302ZM93.3617 13.7502C92.671 13.7502 92.0783 13.6662 91.5837 13.4982C91.089 13.3302 90.683 13.1156 90.3657 12.8542C90.0483 12.5929 89.8103 12.3082 89.6517 12.0002C89.493 11.6829 89.409 11.3796 89.3997 11.0902C89.3997 11.0062 89.4277 10.9362 89.4837 10.8802C89.5397 10.8242 89.6097 10.7962 89.6937 10.7962H91.2337C91.3363 10.7962 91.4203 10.8196 91.4857 10.8662C91.551 10.9036 91.6117 10.9736 91.6677 11.0762C91.7423 11.2909 91.8637 11.4636 92.0317 11.5942C92.1997 11.7249 92.3957 11.8182 92.6197 11.8742C92.853 11.9209 93.1003 11.9442 93.3617 11.9442C93.8843 11.9442 94.295 11.8229 94.5937 11.5802C94.8923 11.3376 95.0417 10.9969 95.0417 10.5582C95.0417 10.1102 94.9017 9.78823 94.6217 9.59223C94.3417 9.39623 93.945 9.29823 93.4317 9.29823H91.9337C91.8403 9.29823 91.761 9.26556 91.6957 9.20023C91.6303 9.1349 91.5977 9.05556 91.5977 8.96223V8.27623C91.5977 8.16423 91.6163 8.0709 91.6537 7.99623C91.7003 7.92156 91.747 7.86556 91.7937 7.82823L94.2017 5.61623H90.2537C90.151 5.61623 90.067 5.58356 90.0017 5.51823C89.9363 5.4529 89.9037 5.37356 89.9037 5.28023V4.16023C89.9037 4.05756 89.9363 3.97356 90.0017 3.90823C90.067 3.8429 90.151 3.81023 90.2537 3.81023H96.4697C96.5723 3.81023 96.6563 3.8429 96.7217 3.90823C96.787 3.97356 96.8197 4.05756 96.8197 4.16023V5.16823C96.8197 5.2709 96.801 5.35956 96.7637 5.43423C96.7263 5.49956 96.6797 5.5509 96.6237 5.58823L94.3417 7.84223L94.4817 7.85623C95.0323 7.91223 95.5223 8.04756 95.9517 8.26223C96.381 8.4769 96.717 8.7849 96.9597 9.18623C97.2117 9.57823 97.3377 10.0776 97.3377 10.6842C97.3377 11.3189 97.165 11.8649 96.8197 12.3222C96.4743 12.7796 96.003 13.1342 95.4057 13.3862C94.8083 13.6289 94.127 13.7502 93.3617 13.7502Z" fill="white"/>
</svg>
