<svg width="395" height="42" viewBox="0 0 395 42" fill="none" xmlns="http://www.w3.org/2000/svg">
<path d="M70.9761 41.3113V0.505859H73.8019V38.4863H96.7222V41.3113H70.9761Z" fill="#FAFAFA"/>
<path d="M164.166 41.3113H160.398L145.764 23.9254L132.577 42.0089V0.505859H135.402V33.2113L159.204 0.505859H162.779L147.456 21.4753L164.157 41.3113H164.166Z" fill="#FAFAFA"/>
<path d="M199.201 41.3113V0.505859H202.026V41.3113H199.201Z" fill="#FAFAFA"/>
<path d="M279.265 41.3112V9.04173L261.176 34.8416L242.843 8.98069V41.3112H240.018V0L261.176 29.8804L282.09 0V41.3112H279.265Z" fill="#FAFAFA"/>
<path d="M320.082 41.3113V0.505859H322.907V41.3113H320.082Z" fill="#FAFAFA"/>
<path d="M365.608 30.9529L360.776 41.3112H357.637L376.85 0L395 41.3112H391.921L387.334 30.9529H365.608ZM376.72 6.9753L366.925 28.1279H386.078L376.72 6.9753V6.9753Z" fill="#FAFAFA"/>
<path d="M31.5721 28.7207L19.2136 0.592773L6.13127 28.7207L0 41.904H37.3632L31.5721 28.7207V28.7207ZM4.30846 39.2795L9.00066 28.7207L18.8735 6.53049L30.4383 33.0802L33.142 39.2708H4.30846V39.2795Z" fill="#FAFAFA"/>
<path d="M30.3161 38.146H6.7417L11.3641 28.2759C11.9223 27.8487 12.9079 27.2122 14.2597 27.0116C14.7568 26.9332 15.7424 26.8373 17.8268 27.4999L17.9576 27.5435C20.8183 28.4677 21.2718 29.3484 23.4435 30.0197C24.3593 30.3075 25.7286 30.5952 27.5514 30.508L30.3161 38.146Z" fill="#ED6A6D"/>
<path d="M27.5512 30.5082C25.7284 30.5954 24.3591 30.3077 23.4434 30.02C21.2717 29.3486 20.8182 28.468 17.9575 27.5437L17.8267 27.5001C20.8443 28.3895 22.4142 27.9361 23.2864 27.2996C23.8009 26.9247 24.4899 26.1835 25.4144 26.2707C25.5889 26.2882 25.7633 26.3318 25.9116 26.4015L26.6267 27.9535L27.5512 30.5082V30.5082Z" fill="#5EBFBC"/>
</svg>
