<svg width="97" height="97" viewBox="0 0 97 97" fill="none" xmlns="http://www.w3.org/2000/svg">
<g filter="url(#filter0_dd_416_3706)">
<circle cx="51" cy="46" r="36" fill="#ED6A6D"/>
</g>
<g clip-path="url(#clip0_416_3706)">
<path d="M63.3434 48.057H53.0577V58.3427C53.0577 59.4741 52.132 60.3999 51.0006 60.3999C49.8692 60.3999 48.9434 59.4741 48.9434 58.3427V48.057H38.6577C37.5263 48.057 36.6006 47.1313 36.6006 45.9999C36.6006 44.8684 37.5263 43.9427 38.6577 43.9427H48.9434V33.657C48.9434 32.5256 49.8692 31.5999 51.0006 31.5999C52.132 31.5999 53.0577 32.5256 53.0577 33.657V43.9427H63.3434C64.4749 43.9427 65.4006 44.8684 65.4006 45.9999C65.4006 47.1313 64.4749 48.057 63.3434 48.057Z" fill="white"/>
</g>
<defs>
<filter id="filter0_dd_416_3706" x="0" y="0" width="97" height="97" filterUnits="userSpaceOnUse" color-interpolation-filters="sRGB">
<feFlood flood-opacity="0" result="BackgroundImageFix"/>
<feColorMatrix in="SourceAlpha" type="matrix" values="0 0 0 0 0 0 0 0 0 0 0 0 0 0 0 0 0 0 127 0" result="hardAlpha"/>
<feOffset dx="-5"/>
<feGaussianBlur stdDeviation="5"/>
<feColorMatrix type="matrix" values="0 0 0 0 0 0 0 0 0 0 0 0 0 0 0 0 0 0 0.4 0"/>
<feBlend mode="normal" in2="BackgroundImageFix" result="effect1_dropShadow_416_3706"/>
<feColorMatrix in="SourceAlpha" type="matrix" values="0 0 0 0 0 0 0 0 0 0 0 0 0 0 0 0 0 0 127 0" result="hardAlpha"/>
<feOffset dy="5"/>
<feGaussianBlur stdDeviation="5"/>
<feColorMatrix type="matrix" values="0 0 0 0 0 0 0 0 0 0 0 0 0 0 0 0 0 0 0.4 0"/>
<feBlend mode="normal" in2="effect1_dropShadow_416_3706" result="effect2_dropShadow_416_3706"/>
<feBlend mode="normal" in="SourceGraphic" in2="effect2_dropShadow_416_3706" result="shape"/>
</filter>
<clipPath id="clip0_416_3706">
<rect width="49.3714" height="49.3714" fill="white" transform="translate(26.3145 21.3142)"/>
</clipPath>
</defs>
</svg>
