<svg width="30" height="30" viewBox="0 0 30 30" fill="none" xmlns="http://www.w3.org/2000/svg">
<path d="M27.3434 17.057H17.0577V27.3427C17.0577 28.4741 16.132 29.3999 15.0006 29.3999C13.8692 29.3999 12.9434 28.4741 12.9434 27.3427V17.057H2.65773C1.5263 17.057 0.600586 16.1313 0.600586 14.9999C0.600586 13.8684 1.5263 12.9427 2.65773 12.9427H12.9434V2.657C12.9434 1.52557 13.8692 0.599854 15.0006 0.599854C16.132 0.599854 17.0577 1.52557 17.0577 2.657V12.9427H27.3434C28.4749 12.9427 29.4006 13.8684 29.4006 14.9999C29.4006 16.1313 28.4749 17.057 27.3434 17.057Z" fill="white"/>
</svg>
