<svg width="277" height="307" viewBox="0 0 277 307" fill="none" xmlns="http://www.w3.org/2000/svg">
<g clip-path="url(#clip0_446_3183)">
<g filter="url(#filter0_d_446_3183)">
<g filter="url(#filter1_d_446_3183)">
<path d="M234.064 209.038L142.441 0L45.4477 209.038L0 307H277L234.064 209.02V209.038ZM31.9426 287.502L66.7246 209.038L139.929 44.1203L225.673 241.431L245.713 287.429V287.502H31.9426Z" fill="white"/>
</g>
<g filter="url(#filter2_d_446_3183)">
<path d="M224.764 279.076H49.98L84.2523 205.718C88.384 202.545 95.7007 197.821 105.729 196.325C109.406 195.742 116.723 195.03 132.175 199.955L133.14 200.283C154.344 207.159 157.711 213.689 173.819 218.686C180.608 220.82 190.764 222.954 204.269 222.316L224.764 279.076Z" fill="#5EBFBC"/>
</g>
<g filter="url(#filter3_d_446_3183)">
<path d="M204.269 222.316C190.764 222.973 180.608 220.821 173.819 218.687C157.711 213.689 154.362 207.16 133.14 200.284L132.175 199.955C154.544 206.558 166.193 203.202 172.654 198.46C176.476 195.669 181.573 190.161 188.434 190.818C189.727 190.945 191.019 191.274 192.111 191.784L197.407 203.311L204.269 222.298V222.316Z" fill="#ED6A6D"/>
</g>
</g>
</g>
<defs>
<filter id="filter0_d_446_3183" x="-10" y="0" width="297" height="327" filterUnits="userSpaceOnUse" color-interpolation-filters="sRGB">
<feFlood flood-opacity="0" result="BackgroundImageFix"/>
<feColorMatrix in="SourceAlpha" type="matrix" values="0 0 0 0 0 0 0 0 0 0 0 0 0 0 0 0 0 0 127 0" result="hardAlpha"/>
<feOffset dy="10"/>
<feGaussianBlur stdDeviation="5"/>
<feComposite in2="hardAlpha" operator="out"/>
<feColorMatrix type="matrix" values="0 0 0 0 0 0 0 0 0 0 0 0 0 0 0 0 0 0 0.25 0"/>
<feBlend mode="normal" in2="BackgroundImageFix" result="effect1_dropShadow_446_3183"/>
<feBlend mode="normal" in="SourceGraphic" in2="effect1_dropShadow_446_3183" result="shape"/>
</filter>
<filter id="filter1_d_446_3183" x="-4" y="0" width="285" height="336" filterUnits="userSpaceOnUse" color-interpolation-filters="sRGB">
<feFlood flood-opacity="0" result="BackgroundImageFix"/>
<feColorMatrix in="SourceAlpha" type="matrix" values="0 0 0 0 0 0 0 0 0 0 0 0 0 0 0 0 0 0 127 0" result="hardAlpha"/>
<feOffset dy="25"/>
<feGaussianBlur stdDeviation="2"/>
<feComposite in2="hardAlpha" operator="out"/>
<feColorMatrix type="matrix" values="0 0 0 0 0 0 0 0 0 0 0 0 0 0 0 0 0 0 0.25 0"/>
<feBlend mode="normal" in2="BackgroundImageFix" result="effect1_dropShadow_446_3183"/>
<feBlend mode="normal" in="SourceGraphic" in2="effect1_dropShadow_446_3183" result="shape"/>
</filter>
<filter id="filter2_d_446_3183" x="45.98" y="195.912" width="182.784" height="91.1641" filterUnits="userSpaceOnUse" color-interpolation-filters="sRGB">
<feFlood flood-opacity="0" result="BackgroundImageFix"/>
<feColorMatrix in="SourceAlpha" type="matrix" values="0 0 0 0 0 0 0 0 0 0 0 0 0 0 0 0 0 0 127 0" result="hardAlpha"/>
<feOffset dy="4"/>
<feGaussianBlur stdDeviation="2"/>
<feComposite in2="hardAlpha" operator="out"/>
<feColorMatrix type="matrix" values="0 0 0 0 0 0 0 0 0 0 0 0 0 0 0 0 0 0 0.25 0"/>
<feBlend mode="normal" in2="BackgroundImageFix" result="effect1_dropShadow_446_3183"/>
<feBlend mode="normal" in="SourceGraphic" in2="effect1_dropShadow_446_3183" result="shape"/>
</filter>
<filter id="filter3_d_446_3183" x="128.175" y="190.764" width="80.0938" height="39.6729" filterUnits="userSpaceOnUse" color-interpolation-filters="sRGB">
<feFlood flood-opacity="0" result="BackgroundImageFix"/>
<feColorMatrix in="SourceAlpha" type="matrix" values="0 0 0 0 0 0 0 0 0 0 0 0 0 0 0 0 0 0 127 0" result="hardAlpha"/>
<feOffset dy="4"/>
<feGaussianBlur stdDeviation="2"/>
<feComposite in2="hardAlpha" operator="out"/>
<feColorMatrix type="matrix" values="0 0 0 0 0 0 0 0 0 0 0 0 0 0 0 0 0 0 0.25 0"/>
<feBlend mode="normal" in2="BackgroundImageFix" result="effect1_dropShadow_446_3183"/>
<feBlend mode="normal" in="SourceGraphic" in2="effect1_dropShadow_446_3183" result="shape"/>
</filter>
<clipPath id="clip0_446_3183">
<rect width="277" height="307" fill="white"/>
</clipPath>
</defs>
</svg>
