<svg width="416" height="386" viewBox="0 0 416 386" fill="none" xmlns="http://www.w3.org/2000/svg">
<path d="M74.3913 214.628C74.2577 214.381 62.3497 190.196 53.9359 173.914C53.7427 173.357 53.364 172.908 52.8808 172.662C52.3976 172.416 51.8483 172.393 51.3503 172.598C35.7071 175.888 22.2468 178.649 1.97754 183.075C8.25668 199.897 3.07223 187.378 18.9058 225.777C19.1401 226.441 19.3744 226.97 20.1976 226.706C26.1943 225.379 32.191 224.34 38.1833 223.001C48.064 220.761 72.1559 215.29 74.3913 214.628Z" fill="#ED6A6D"/>
<path d="M155.149 112.117C154.681 112.117 153.971 111.189 153.857 110.524C153.128 106.286 140.084 26.1872 139.751 24.856C139.252 22.88 139.983 21.6451 141.866 21.3981C148.434 20.5361 242.961 9.04863 248.371 8.40151C249.544 8.2632 250.269 8.52748 250.604 9.99213C251.6 14.354 267.515 89.8315 268.824 96.3249C268.911 96.7127 268.92 97.1177 268.849 97.5099C268.779 97.902 268.63 98.2711 268.416 98.5897C268.201 98.9083 267.926 99.1681 267.61 99.3499C267.294 99.5316 266.945 99.6306 266.591 99.6395C261.888 100.047 156.796 112.248 155.149 112.117Z" fill="white"/>
<path d="M76.3876 236.907C75.8665 232.797 74.5551 229.68 77.7998 228.554C80.2891 227.687 80.2672 227.756 80.2672 222.984C80.0314 217.761 81.4943 212.62 84.381 208.528C86.2742 205.423 88.6921 202.771 91.496 200.723C94.2999 198.675 97.4346 197.271 100.72 196.593C106.08 195.319 107.433 194.519 121.763 196.46C126.798 197.142 140.736 200.323 147.159 200.439C155.063 200.582 162.023 197.445 159.615 188.9C156.318 177.135 146.634 172.188 136.221 164.764C130.995 161.037 126.68 157.695 130.461 151.369C132.251 148.579 134.637 146.344 137.397 144.871C145.073 140.331 144.744 140.892 148.563 140.228C148.563 139.963 148.563 139.432 148.797 139.302C150.33 137.975 149.837 136.387 149.502 134.792C148.94 131.223 149.061 127.561 149.854 124.05C150.09 123.082 150.594 122.225 151.291 121.603C151.989 120.981 152.845 120.627 153.734 120.592C158.798 120.148 269.303 107.077 273.997 106.405C275.739 106.077 277.525 106.205 279.217 106.78C280.909 107.355 282.461 108.36 283.753 109.72C294.31 120.204 314.284 137.716 324.661 147.383C325.667 148.112 326.424 149.204 326.808 150.48C327.193 151.757 327.182 153.143 326.778 154.412C326.281 156.05 325.841 161.681 319.606 162.501C300.679 164.991 223.115 173.734 197.001 177.222C183.262 179.055 168.878 168.407 159.972 156.665C157.062 153.077 154.537 149.116 152.447 144.864C152.212 144.068 150.673 144.187 150.332 143.802C149.509 142.342 148.451 142.873 147.394 143.271C141.734 144.81 136.614 148.229 132.696 153.086C128.348 159.061 137.318 161.753 149.154 170.724C155.634 175.634 162.704 184.434 162.555 192.869C162.458 194.749 161.916 196.565 160.985 198.128C160.055 199.692 158.771 200.946 157.266 201.76C144.836 207.96 123.052 197.737 107.893 198.843C98.4785 199.527 90.6646 203.65 85.7932 213.169C83.7663 216.959 82.784 221.344 82.9711 225.765C82.9711 226.827 83.2053 227.623 84.381 227.887C86.6164 228.154 86.9908 230.268 87.4462 232.263C88.068 235.04 88.0395 234.98 90.5113 234.652C125.217 230.078 111.31 231.234 122.603 230.008C124.239 229.977 125.848 230.472 127.244 231.434C128.639 232.396 129.764 233.786 130.485 235.442C135.678 248.239 154.553 290.42 155.054 297.372C155.286 298.898 154.988 300.467 154.221 301.751C153.455 303.035 152.279 303.937 150.938 304.268C146.51 306.386 141.902 307.986 137.185 309.043C136.926 309.112 91.1353 319.937 84.0504 320.713C81.9311 320.945 74.5288 321.377 71.4724 319.52C64.1687 316.944 58.693 302.285 55.6038 294.327C42.0734 259.469 42.2924 258.514 41.7319 251.494C41.5675 249.87 41.9465 248.236 42.7945 246.911C43.6425 245.586 44.8986 244.666 46.3165 244.331C53.4757 242.291 60.6482 240.572 67.8293 238.762C72.4205 237.601 75.9607 237.391 76.3876 236.907ZM48.057 261.707C47.8421 261.75 47.6387 261.847 47.4623 261.992C47.2859 262.137 47.1412 262.325 47.0392 262.543C46.9371 262.76 46.8805 263.001 46.8737 263.247C46.8668 263.493 46.9099 263.738 46.9996 263.962C50.6624 273.293 66.6317 310.907 67.3367 311.967C68.2125 312.955 149.627 294.784 149.859 294.727C150.106 294.668 150.337 294.546 150.537 294.372C150.736 294.198 150.899 293.976 151.012 293.721C151.124 293.466 151.185 293.187 151.189 292.902C151.193 292.617 151.14 292.335 151.035 292.077C147.155 282.988 132.931 248.711 131.768 246.058C131.626 245.825 131.43 245.641 131.202 245.524C130.974 245.408 130.723 245.363 130.474 245.396C121.301 247.12 60.2825 259.188 48.057 261.707ZM155.619 144.607C158.055 149.77 161.144 154.506 164.788 158.666C176.094 170.768 188.902 175.066 193.001 174.72C196.76 174.396 309.973 160.58 318.196 159.471C319.543 159.397 320.828 158.804 321.834 157.79C322.84 156.776 323.506 155.403 323.722 153.901C323.91 153.1 323.9 152.256 323.693 151.461C323.486 150.666 323.089 149.95 322.546 149.391C308.849 136.609 295.122 123.576 281.519 110.668C280.844 109.927 280.025 109.374 279.128 109.052C278.23 108.729 277.279 108.647 276.348 108.811C268.14 110.177 166.323 122.41 154.68 123.798C150.667 124.275 151.711 125.49 152.681 136.528C152.786 137.723 153.386 138.118 154.432 138.118C155.562 138.1 156.669 138.47 157.607 139.181C158.483 140.232 159.128 141.501 159.488 142.885C159.958 143.947 159.488 144.614 158.43 144.614C157.497 144.744 156.552 144.742 155.619 144.607Z" fill="white"/>
<path d="M309.15 52.7045C308.092 48.7255 307.151 44.8799 305.975 41.1676C305.569 35.306 305.925 29.4088 307.033 23.6635C308.784 22.6755 311.101 28.3291 314.205 32.0167C316.666 34.941 317.025 38.6483 317.967 42.0963C318.437 43.8252 318.906 45.4109 319.377 47.1349C319.44 47.1432 319.505 47.1356 319.566 47.1125C319.627 47.0895 319.683 47.0516 319.729 47.0015C319.495 45.2726 318.553 28.171 318.553 21.8086C318.553 17.8568 321.2 13.774 324.55 15.5746C327.762 17.3035 328.031 20.9268 328.546 24.9898C331.015 24.7255 331.324 24.9898 331.83 27.7759C332.334 30.6659 332.334 33.6392 331.83 36.5292C331.587 37.6209 331.271 38.0704 330.654 37.7221C330.418 34.2643 329.713 27.2448 329.594 27.2448C329.382 28.1604 329.226 29.0913 329.126 30.0309C329.479 36.2632 329.949 42.4956 330.536 48.728C330.536 49.0985 330.855 51.0028 331.83 50.4569C333.337 40.5218 335.34 30.6907 337.831 21.0108C338.422 18.415 340.064 15.9846 342.415 16.8984C343.043 17.3617 343.535 18.0251 343.828 18.8044C344.122 19.5836 344.203 20.4436 344.062 21.2751C344.062 21.5394 343.944 21.6727 343.944 21.9395C344.532 22.1885 345.034 22.646 345.373 23.2436C345.712 23.8411 345.87 24.5465 345.824 25.2541C345.883 28.3069 345.883 31.2189 345.824 34.2717C345.802 34.5966 345.676 34.9012 345.469 35.1286C345.262 35.356 344.989 35.4905 344.701 35.5069C344.412 35.5232 344.128 35.4203 343.902 35.2175C343.676 35.0147 343.524 34.7258 343.473 34.4051C343.42 33.4233 343.302 32.4475 343.12 31.4856C336.944 66.326 341.347 49.4195 348.762 31.8833C349.417 30.5886 350.206 29.3871 351.114 28.3044C352.017 26.7862 353.043 25.3657 354.179 24.0611C354.351 23.7301 354.59 23.4494 354.876 23.2417C355.162 23.0341 355.487 22.9052 355.825 22.8657C356.883 22.8657 357.016 23.661 357.117 24.8564C357.4 28.1661 357.824 31.3547 358.177 34.6693C358.372 35.7759 358.039 36.2525 351.593 52.3069C351.116 53.4973 351.593 54.1445 352.417 54.6952C353.369 55.3374 354.415 56.0216 355.355 56.5501C356.084 56.9743 356.666 57.6626 357.007 58.5047C357.348 59.3468 357.429 60.2938 357.235 61.1935C356.311 67.8474 348.563 116.077 347.714 122.062C345.64 136.651 326.744 133.897 313.975 130.815C307.563 129.269 308.014 124.887 306.453 117.29C305.608 113.182 295.966 66.8669 294.345 60.2649C292.837 54.1692 303.617 52.3686 309.15 52.7045ZM353.594 62.6508C334.785 67.1608 316.211 67.5585 297.872 60.2649C302.965 88.9823 305.36 96.802 311.51 123.247C312.272 126.53 314.115 126.11 315.153 126.705C329.316 128.434 334.825 130.41 341.132 127.103C342.017 126.744 342.799 126.124 343.399 125.307C343.998 124.491 344.393 123.509 344.541 122.462C353.174 70.3445 350.529 82.6446 353.581 62.6508H353.594ZM308.57 40.5032C309.498 47.006 311.071 53.3704 313.259 59.477C313.389 59.797 313.592 60.0717 313.848 60.2723C315.963 60.6699 318.078 60.9342 320.314 61.201C319.959 59.598 314.505 39.9599 314.435 39.7129C313.378 36.6576 308.088 39.8413 308.557 40.5032H308.57ZM352.653 36.6576C352.066 36.791 351.475 37.3368 350.89 37.1886C350.418 37.0701 350.067 36.2599 349.597 35.598C346.422 43.9512 342.545 51.8993 339.722 60.6625C341.837 60.3958 343.602 60.1315 345.364 59.8672C346.221 59.8672 346.326 59.2843 353.71 39.8413C354.1 38.9348 353.294 37.8901 352.64 36.6576H352.653ZM335.609 34.8027C333.962 43.9413 332.543 52.4402 330.906 61.3245C332.552 61.1935 333.61 61.0602 334.785 61.0602C336.734 61.0602 335.626 61.117 340.662 36.2599C338.886 35.7314 337.24 35.3313 335.595 34.8027H335.609ZM328.554 61.3245C327.812 49.6122 327.302 44.1858 327.022 38.7792C326.873 35.8648 326.551 35.3214 323.847 35.598C323.132 35.7748 322.426 35.9958 321.732 36.2599C322.437 44.6156 323.142 52.9713 323.731 61.3245H328.554ZM326.439 32.4267C325.969 28.3168 325.52 23.9352 324.793 19.6968C324.338 17.0417 321.971 18.3705 321.618 19.0324C321.151 19.7656 320.904 20.6485 320.913 21.5517C321.102 30.4582 321.618 31.2979 321.618 33.6196C323.252 33.2096 324.662 32.8021 326.426 32.4143L326.439 32.4267ZM311.979 34.6817C309.745 30.8361 309.745 30.8361 308.217 31.3671C307.512 37.3343 307.042 36.4057 308.57 36.4057C309.812 36.155 310.979 35.5581 311.965 34.6693L311.979 34.6817ZM351.948 33.3553C353.594 32.2958 353.594 32.2958 355.232 34.946H355.585C355.469 33.222 355.352 31.498 355.232 29.774C354.617 29.5124 353.989 29.2914 353.351 29.1121C351.112 31.8833 351.112 31.8833 351.935 33.343L351.948 33.3553Z" fill="white"/>
<path d="M13.9674 364.881C12.8368 365.062 11.6892 365.062 10.5586 364.881C10.346 364.827 10.1488 364.713 9.98486 364.551C9.82088 364.389 9.69526 364.183 9.61932 363.953C9.5011 363.689 9.97181 363.158 10.2061 362.76C10.6163 362.289 11.1134 361.926 11.6622 361.697C12.2109 361.468 12.7976 361.378 13.3807 361.434C33.9959 357.072 368.813 288.078 406.127 279.875C409.582 279.114 411.684 282.893 408.949 283.58C406.521 284.205 14.1864 364.837 13.9674 364.881Z" fill="white"/>
<path d="M413.767 294.596C414.175 294.417 414.628 294.413 415.039 294.584C415.45 294.755 415.792 295.09 416 295.525C415.765 296.982 414.708 297.253 413.651 297.646C280.317 333.68 29.1954 385.703 17.1406 385.703C17.1406 380.03 96.6217 372.906 413.767 294.596Z" fill="white"/>
<path d="M72.156 155.084C68.8719 158.268 59.5889 156.655 56.2873 154.289C54.0232 152.666 52.1719 150.406 50.9149 147.733C49.658 145.059 49.0384 142.063 49.1171 139.038C48.7778 126.219 58.4242 121.966 64.515 127.765C64.9857 128.163 65.4565 128.694 65.809 127.765C66.7444 125.736 68.1168 124.005 69.8001 122.731C71.4833 121.456 73.4234 120.679 75.4422 120.471C87.2868 118.164 93.2944 116.779 111.061 120.605C116.36 121.746 119.162 126.836 118.702 133.335C117.955 142.711 114.668 151.601 109.288 158.797C107.372 161.507 104.595 163.269 101.546 163.707C96.1405 164.646 90.6561 164.868 85.2047 164.369C78.5271 163.741 74.3869 157.241 72.156 155.084ZM67.4554 131.48C67.0834 136.249 67.812 141.045 69.5703 145.403C71.8964 150.708 75.2277 155.371 79.3284 159.063C80.8147 160.592 82.7292 161.483 84.7383 161.583C91.1441 162.143 97.5875 161.742 103.9 160.39C104.539 160.178 105.111 159.763 105.546 159.194C111.852 151.856 116.955 140.655 116.596 130.153C116.392 124.206 110.884 122.4 105.664 121.533C94.0257 119.597 68.5895 118.295 67.4554 131.48ZM86.8511 122.062C106.028 119.839 118.319 126.567 113.301 129.091C104.36 133.589 89.4367 136.182 72.3924 131.213C70.6256 130.699 67.6809 128.002 71.5692 125.51C74.2665 123.776 83.5583 122.442 86.8511 122.062ZM64.7515 132.539C64.8961 131.722 64.7707 130.873 64.399 130.153C63.647 129.112 62.6629 128.316 61.5478 127.846C60.4327 127.376 59.2268 127.249 58.0539 127.478C56.881 127.708 55.7834 128.286 54.8739 129.152C53.9643 130.018 53.2756 131.142 52.8785 132.408C52.1266 134.382 51.7511 136.512 51.7765 138.66C51.8019 140.807 52.2276 142.925 53.0258 144.875C53.8241 146.825 54.9771 148.564 56.4099 149.979C57.8428 151.394 59.5234 152.452 61.3426 153.086C64.4521 154.481 67.8849 154.667 71.0985 153.615C70.5117 152.686 69.9228 151.886 69.4521 151.096C62.5971 153.847 49.3492 139.453 57.9338 132.663C58.8971 131.792 60.0897 131.308 61.3239 131.285C62.5581 131.263 63.7638 131.704 64.7515 132.539ZM68.8653 150.177C66.4528 145.835 65.1134 140.845 64.9857 135.723C64.7967 135.192 64.5045 134.716 64.1306 134.33C63.7568 133.944 63.3108 133.657 62.8256 133.491C62.3404 133.325 61.8284 133.284 61.3273 133.371C60.8263 133.458 60.3489 133.671 59.9305 133.994C53.4302 138.064 61.4981 150.177 68.8653 150.177ZM85.5572 126.308C82.2731 124.45 76.388 125.112 74.5074 128.429C78.2687 127.646 81.6732 126.97 85.5572 126.308Z" fill="white"/>
<path d="M147.744 118.483C148.215 124.052 145.644 119.276 145.511 118.349C144.777 113.293 130.899 31.6239 130.345 27.2423C129.812 24.4453 130.056 21.5308 131.045 18.8964C132.034 16.2619 133.719 14.0358 135.871 12.5217C137.117 11.8008 138.473 11.3509 139.867 11.1954C142.916 10.6199 241.436 0.241384 245.666 0.0561417C258.859 -0.521814 257.636 1.45411 276.817 102.436C276.817 105.222 274.962 104.286 274.702 103.098C274.38 101.631 273.848 100.191 273.526 98.7235C256.48 20.9712 256.703 11.0274 255.188 7.88077C254.594 6.32288 253.584 5.01282 252.299 4.13312C251.013 3.25343 249.517 2.84792 248.018 2.97309C244.491 3.24478 139.505 14.0876 137.752 15.3077C133.649 18.1407 133.592 22.1889 133.049 25.9159C133.167 26.0493 146.568 110.791 147.744 118.483Z" fill="white"/>
<path d="M63.8101 219.667C61.1172 220.262 51.1117 222.695 48.7647 223.248C45.1062 224.11 36.2283 225.582 21.0209 229.349C20.427 229.55 19.8031 229.613 19.1871 229.534C18.571 229.455 17.9756 229.236 17.4369 228.889C16.8983 228.543 16.4276 228.076 16.0535 227.519C15.6794 226.961 15.4097 226.323 15.2606 225.644C-0.748135 182.747 -0.209547 184.024 0.0969661 181.606C0.0969661 180.786 -0.527004 181.159 42.768 171.793C45.8331 171.134 48.8873 170.499 51.9371 169.671C53.3515 169.289 54.0542 170.202 54.641 171.4C69.2223 201.009 63.254 190.171 74.1549 210.123C75.0964 211.852 75.8211 213.556 76.7406 215.164C77.3427 216.214 76.8566 217.009 75.9196 217.286C75.1051 217.521 67.2234 218.914 63.8101 219.667ZM74.3914 214.628C74.2578 214.381 62.3498 190.196 53.936 173.915C53.7428 173.358 53.3641 172.908 52.8809 172.662C52.3977 172.416 51.8484 172.393 51.3504 172.598C35.7072 175.888 22.2469 178.649 1.97764 183.075C8.25679 199.898 3.07233 187.378 18.9059 225.778C19.1402 226.442 19.3745 226.97 20.1977 226.706C26.1944 225.38 32.1911 224.34 38.1834 223.001C48.0641 220.761 72.156 215.29 74.3914 214.628Z" fill="white"/>
<path d="M7.03334 106.405C4.50461 106.976 3.29826 103.147 5.85765 102.426C9.14172 101.981 131.121 89.9284 135.049 89.5628C136.693 89.4097 137.282 89.6938 137.4 91.0201C137.518 92.3464 137.164 93.0108 135.867 93.0108C131.465 93.0207 7.72738 106.405 7.03334 106.405Z" fill="white"/>
<path d="M373.33 176.036C366.637 173.979 370.39 176.019 353.111 168.743C348.556 166.58 344.283 163.725 340.413 160.256C339.596 159.622 338.678 159.171 337.709 158.93C336.995 158.819 336.322 158.489 335.762 157.976C335.203 157.463 334.779 156.787 334.536 156.021C334.294 155.255 334.242 154.429 334.387 153.632C334.532 152.836 334.868 152.099 335.358 151.503C338.084 147.847 341.61 145.058 345.587 143.414C352.428 140.161 359.222 141.295 365.922 143.945C375.925 147.897 388.299 152.007 391.318 163.042C391.788 165.07 391.677 167.213 391.001 169.165C390.326 171.117 389.12 172.778 387.557 173.91C379.224 179.089 376.991 177.163 373.33 176.036ZM343.472 160.787C350.844 165.983 358.898 169.832 367.336 172.191C365.963 170.645 368.882 172.601 344.295 160.521C343.336 159.802 342.896 160.461 343.472 160.787ZM350.994 143.547C346.272 144.782 339.61 148.102 336.888 152.565C335.684 154.541 336.179 155.899 338.3 156.544C349.254 159.745 359.744 164.701 369.451 171.262C374.845 174.332 379.108 176.928 386.145 170.336C389.429 167.263 389.556 164.63 387.318 160.521C385.521 157.063 382.808 154.327 379.561 152.698C374.04 150.036 368.396 147.657 362.633 145.402C358.89 143.971 354.942 143.342 350.994 143.547Z" fill="white"/>
<path d="M332.068 208.794C332.303 203.753 335.698 201.79 339.591 204.284C339.81 204.43 369.846 223.107 393.314 238.369C395.394 240.943 397.244 243.741 398.838 246.725C399.379 247.648 399.114 248.701 397.78 248.701C387.359 247.394 396.605 251.536 335.125 212.64C334.067 211.578 332.539 210.518 332.068 208.794ZM391.786 239.693L347.464 211.314C347.109 210.974 346.692 210.726 346.243 210.587C345.794 210.449 345.323 210.423 344.864 210.511C344.405 210.6 343.969 210.801 343.586 211.1C343.203 211.399 342.882 211.789 342.647 212.242C341.684 213.546 341.713 214.218 343 215.026C363.278 227.699 388.554 244.334 389.082 244.334C389.905 242.876 390.728 241.283 391.786 239.693ZM395.547 244.2L393.785 241.019C391.549 242.079 390.61 243.405 390.72 245.527C392.373 245.262 394.253 246.589 395.547 244.2ZM335.12 209.987C336.06 208.394 336.883 206.937 337.824 205.344C337.541 205.167 337.229 205.058 336.907 205.022C336.585 204.987 336.26 205.027 335.953 205.139C335.645 205.251 335.361 205.433 335.118 205.674C334.875 205.915 334.678 206.209 334.54 206.539C333.715 208.13 334.067 209.456 335.125 209.987H335.12ZM339.587 213.169C340.762 211.44 341.82 210.118 342.871 208.661C342.041 208.599 341.219 208.871 340.551 209.43C339.883 209.989 339.413 210.798 339.225 211.711C339.239 212.116 339.582 212.771 339.582 213.169H339.587ZM337.235 211.842C338.295 209.866 339.116 208.384 339.823 206.804C338.059 207.201 336.883 208.263 336.758 209.987C336.823 210.632 336.986 211.26 337.24 211.842H337.235Z" fill="white"/>
<path d="M114.358 157.072C121.5 158.475 119.466 175.228 94.4914 176.965C84.799 177.639 63.5424 173.349 67.2183 164.766C67.5262 163.75 68.0909 162.858 68.843 162.199C69.595 161.541 70.5014 161.145 71.4504 161.061C71.2715 161.462 70.9828 161.788 70.6272 161.99C70.0295 162.346 69.5329 162.884 69.1946 163.544C68.8562 164.204 68.6898 164.959 68.7145 165.72C68.7392 166.482 68.954 167.221 69.3342 167.851C69.7144 168.481 70.2445 168.978 70.8636 169.283C81.4471 176.54 103.199 177.325 114.124 167.308C114.722 166.809 115.223 166.178 115.597 165.453C115.97 164.727 116.208 163.924 116.296 163.091C116.384 162.258 116.32 161.413 116.108 160.609C115.896 159.805 115.54 159.059 115.063 158.416C114.71 158.134 114.592 157.603 114.358 157.072Z" fill="white"/>
<path d="M360.751 68.8843C359.044 68.8843 358.718 67.2541 359.928 66.2316C361.923 63.8062 387.451 61.9883 387.672 61.9883C388.264 61.9356 388.851 62.1504 389.303 62.5856C389.755 63.0208 390.035 63.6406 390.081 64.3088C390.128 64.9769 389.938 65.6387 389.552 66.1484C389.166 66.6582 388.617 66.9742 388.025 67.0269C378.972 68.2337 369.866 68.8539 360.751 68.8843Z" fill="white"/>
<path d="M282.578 73.3924C291.773 72.2093 293.293 72.0315 294.569 72.8614C294.81 72.9868 295.013 73.1907 295.151 73.447C295.289 73.7032 295.355 74 295.343 74.2994C295.33 74.5988 295.238 74.887 295.079 75.1272C294.921 75.3674 294.702 75.5486 294.451 75.6474C292.812 76.3201 291.119 76.809 289.396 77.1071C285.286 77.6802 281.05 78.0358 276.818 78.3001C275.055 78.5644 271.872 74.7706 282.578 73.3924Z" fill="white"/>
<path d="M318.078 194.736C317.257 193.543 316.327 192.083 314.553 192.879C314.201 193.012 310.639 193.301 309.737 191.552C308.044 188.292 301.572 186.366 299.039 186.119C275.009 183.214 264.156 188.742 252.255 196.329C249.962 197.438 251.626 196.875 244.259 193.943C230.054 187.934 206.041 189.28 183.131 205.747C180.172 207.805 177.645 210.565 175.727 213.836C174.243 216.343 173.119 215.908 169.848 217.541C169.497 217.631 169.17 217.818 168.898 218.085C168.626 218.353 168.416 218.692 168.288 219.072C168.16 219.453 168.117 219.863 168.164 220.267C168.21 220.671 168.344 221.055 168.555 221.386C170.435 224.968 204.526 289.42 207.582 295.387C208.524 297.244 209.229 297.642 210.991 297.244C217.459 295.651 271.933 283.719 283.994 280.8C285.907 280.215 287.892 279.99 289.87 280.135C293.961 280.69 298.085 279.452 301.391 276.677C302.319 275.91 303.418 275.45 304.565 275.351C310.089 274.556 352.41 267.526 356.758 266.864C369.662 265.346 374.111 276.739 318.078 194.736ZM213.927 291.015C213.051 290.027 176.103 221.241 175.957 220.994C176.984 219.835 173.767 214.942 213.338 288.629C214.602 291.003 214.612 290.242 213.927 291.015ZM232.5 284.383C247.013 277.139 262.606 273.045 278.464 272.316L232.5 284.383ZM237.203 279.609C247.429 273.775 258.126 270.063 269.06 270.592C258.179 272.264 247.495 275.288 237.203 279.609ZM216.865 289.689C203.463 265.023 190.062 240.4 176.662 215.822C196.721 196.556 223.501 189.223 246.137 198.317C248.932 199.409 251.302 201.566 252.837 204.418C272.204 237.905 289.386 266.682 291.747 271.123C263.652 261.31 239.201 269.93 216.865 289.689ZM294.569 270.592C280.815 247.251 266.943 223.646 252.955 200.041C266.133 187.736 293.824 186.351 307.617 192.083C308.662 192.38 351.716 255.767 352.64 257.331C342.713 254.931 332.415 255.341 322.663 258.524C312.849 261.064 303.395 265.125 294.569 270.592ZM343.705 259.188C335.604 260.514 327.013 261.707 318.549 263.034C329.835 259.586 340.414 258.126 343.705 259.188ZM307.265 269.001C307.171 268.845 307.129 268.657 307.147 268.47C309.851 267.675 312.673 266.741 315.611 266.215C321.535 265.2 344.909 261.223 350.993 260.912C351.79 260.923 352.581 261.057 353.345 261.31C337.831 263.962 322.547 266.482 307.265 269.001Z" fill="white"/>
<path d="M335.124 209.988C332.716 208.778 334.736 203.667 337.71 205.344C336.886 206.93 335.947 208.395 335.124 209.988Z" fill="#ED6A6D"/>
<path d="M128.231 294.994C127.994 296.451 127.287 297.143 126.114 296.982C120.572 296.224 127.817 299.823 104.132 283.986C97.9559 279.856 72.627 264.456 72.627 259.188C73.2028 258.538 79.8213 259.682 80.8568 260.381C133.249 296.081 124.469 289.691 128.231 294.994ZM103.661 281.466C104.255 282.136 115.184 289.476 123.057 294.727C123.874 295.273 124.233 294.861 124.704 294.199C125.174 293.401 124.704 293.008 124.117 292.606C121.906 291.091 108.715 281.985 104.485 279.211C104.251 279.981 103.976 280.734 103.661 281.466Z" fill="white"/>
<path d="M276.464 113.842C278.614 114.215 277.121 113.259 309.498 144.74C310.719 145.659 309.824 146.598 309.027 146.598C304.561 147.126 198.174 160.797 193.356 161.583C192.602 161.722 191.829 161.622 191.123 161.294C190.417 160.966 189.806 160.423 189.358 159.725C166.369 128.276 165.634 128.358 165.964 127.234C166.89 125.144 276.206 113.795 276.464 113.842ZM187.595 136.651C186.183 136.916 185.126 137.18 183.95 137.313C182.892 137.58 183.832 137.978 184.539 137.978C188.723 136.666 190.514 139.773 195.352 146.598C193.708 146.862 192.414 146.995 191.12 147.26C189.944 147.791 191.004 147.657 191.12 147.791C192.253 147.932 193.396 147.932 194.529 147.791C195.115 147.636 195.729 147.679 196.293 147.915C196.858 148.15 197.348 148.569 197.704 149.117C198.823 150.379 200 151.574 201.231 152.696C201.583 152.963 201.936 153.227 201.583 152.298C200.408 150.841 199.35 149.381 198.056 147.924C198.032 147.892 198.015 147.853 198.008 147.811C198.001 147.77 198.004 147.727 198.016 147.687C198.028 147.646 198.048 147.61 198.076 147.582C198.104 147.553 198.138 147.533 198.174 147.524C200.055 147.26 208.048 146.067 212.162 145.669C212.756 145.759 213.301 146.089 213.695 146.598C216.723 150.014 220.815 155.366 219.573 152.565C217.927 150.31 216.289 147.924 214.518 145.669C214.989 145.402 218.286 145.059 227.333 143.94C231.449 143.446 232.767 142.851 234.032 144.471C235.346 146.165 236.736 147.786 238.03 149.51C238.617 150.569 239.087 150.041 238.382 149.112C237.207 147.121 235.913 145.266 234.621 143.145C239.674 142.48 244.613 141.818 249.666 141.154C251.418 141.154 253.458 145.508 255.779 147.255L256.132 146.857C254.84 145 253.664 143.152 252.37 141.287C252.04 140.546 251.954 141.011 266.124 138.899C267.773 138.652 268.828 138.37 270.004 140.225C272.121 144.471 273.069 145.133 272.237 142.747C271.884 142.083 271.061 140.225 270.592 139.166C270.559 139.097 270.541 139.02 270.543 138.941C270.544 138.863 270.563 138.786 270.599 138.719C270.634 138.651 270.685 138.596 270.746 138.558C270.807 138.52 270.875 138.5 270.945 138.501C272.826 138.237 277.531 137.2 281.758 136.646C285.64 136.138 286.825 135.31 288.224 137.044C289.29 138.363 290.459 139.563 291.635 140.89C292.456 141.949 292.808 141.685 292.103 140.492L288.819 135.982C288.762 135.933 288.722 135.864 288.703 135.786C288.684 135.709 288.688 135.626 288.715 135.551C288.741 135.476 288.788 135.413 288.85 135.372C288.911 135.33 288.982 135.312 289.053 135.32L293.051 134.127C293.99 133.86 293.522 133.596 292.933 133.596C287.435 134.159 287.873 135.281 284.939 131.341C283.652 129.612 279.061 125.241 278.356 124.445C278.736 124.197 279.128 123.975 279.532 123.781C280.355 123.517 280.355 123.119 279.179 123.383C278.515 123.542 277.824 123.497 277.18 123.252C276.946 123.119 275.184 120.733 274.595 119.935C273.89 119.273 273.89 119.671 274.242 120.202L275.775 122.985C275.809 123.054 275.826 123.131 275.825 123.21C275.824 123.288 275.804 123.365 275.769 123.432C275.733 123.5 275.682 123.555 275.621 123.594C275.56 123.632 275.492 123.651 275.422 123.65C270.485 124.312 265.664 124.976 260.845 125.505C259.276 125.505 258.656 124.307 256.966 122.721C256.495 121.793 256.143 122.19 256.732 122.985C257.318 123.914 257.789 124.843 258.378 125.772C258.612 126.303 258.494 126.433 258.26 126.433C256.027 126.964 251.558 127.086 248.845 127.496C242.025 128.528 241.658 128.706 238.971 125.107C238.361 124.335 237.692 123.625 236.972 122.985C236.62 122.457 236.386 122.855 236.62 123.383C237.68 124.843 238.971 126.7 240.147 128.291C240.171 128.323 240.187 128.362 240.193 128.403C240.2 128.444 240.198 128.487 240.186 128.527C240.174 128.566 240.153 128.602 240.126 128.631C240.098 128.659 240.065 128.679 240.029 128.688C238.266 128.822 230.98 129.224 227.803 129.881C225.22 130.417 224.738 130.279 222.75 127.629C222.227 126.774 221.636 125.975 220.986 125.241C220.162 124.048 220.399 124.976 220.633 125.638C221.456 126.964 222.279 128.424 223.103 129.881C223.127 129.942 223.141 130.008 223.142 130.075C223.144 130.142 223.133 130.209 223.111 130.271C223.089 130.333 223.056 130.389 223.014 130.437C222.971 130.484 222.921 130.521 222.866 130.546C217.458 131.475 212.193 132.423 206.884 133.329C204.942 133.663 205.616 132.835 202.533 129.353L202.181 129.751C202.888 131.077 203.713 132.27 204.651 133.727C200.066 134.656 195.597 135.31 191.131 136.38C190.473 136.597 189.769 136.542 189.144 136.225C188.519 135.908 188.015 135.35 187.722 134.651C184.784 130.541 184.313 130.805 184.784 131.47C185.567 133.298 186.509 135.033 187.595 136.651Z" fill="#ED6A6D"/>
<path d="M189.005 169.805C188.786 169.558 186.912 167.94 189.24 167.286C194.056 166.621 314.435 151.105 319.606 150.443C320.62 150.443 321.327 151.849 319.724 152.298C307.335 154.104 191.495 169.242 189.005 169.805Z" fill="white"/>
<path d="M154.444 126.705C186.608 167.459 187.368 166.31 185.949 167.683C185.126 168.479 184.546 167.543 184.069 166.888C177.923 158.441 152.682 127.77 152.682 127.234C152.682 126.836 152.673 124.458 154.444 126.705Z" fill="white"/>
<path d="M205.227 218.474C203.865 219.262 202.551 220.147 202.162 219.005C201.693 216.889 211.611 212.021 212.625 211.579C221.855 207.495 231.764 205.73 241.66 206.407C243.367 206.617 245.056 206.972 246.715 207.469C251.788 210.321 227.565 205.562 205.227 218.474Z" fill="white"/>
<path d="M247.666 216.352C250.486 217.679 247.782 218.081 247.311 218.081C241.598 218.119 235.911 218.965 230.385 220.601C230.032 220.734 227.21 220.336 229.914 218.872C240.403 215.08 242.72 215.066 247.666 216.352Z" fill="white"/>
<path d="M295.745 244.069C294.335 241.55 292.922 239.161 291.512 236.775C291.307 236.623 291.075 236.521 290.832 236.475C290.59 236.429 290.341 236.441 290.103 236.509C288.918 236.877 287.633 237.304 286.339 237.571C287.046 235.713 288.69 235.316 290.103 234.254C289.043 232.265 288.104 230.277 287.037 228.155C282.799 229.884 283.053 229.795 281.864 229.348C282.578 228.141 281.323 228.607 286.214 226.298C284.802 223.512 283.51 220.864 282.098 218.076C281.159 218.473 280.217 218.871 279.16 219.269C279.16 217.414 280.57 217.293 281.277 216.485C280.217 213.966 279.16 211.444 278.103 208.791C278.221 208.661 278.159 206.623 279.983 209.456C283.048 214.213 283.329 215.556 284.215 215.556C288.095 214.628 291.856 213.566 295.736 212.506C291.738 204.284 291.151 201.498 297.146 211.18C297.281 211.629 297.564 212.002 297.935 212.224C298.307 212.446 298.739 212.499 299.145 212.373C301.962 212.064 304.787 211.975 307.843 211.842C307.451 211.042 307.136 210.198 306.904 209.322C303.839 198.581 308.548 208.527 308.548 208.661C310.711 215.981 315.95 209.807 318.181 214.494C316.301 214.364 314.302 214.23 311.95 214.097C313.244 216.352 314.302 218.34 315.477 220.331C315.753 220.951 321.516 220.378 323.237 222.307C321.238 223.5 319.239 222.307 317.006 223.102C317.947 224.831 318.886 226.56 319.946 228.274C320.062 228.541 320.651 228.541 321.12 228.541C322.884 228.672 324.531 228.672 326.293 228.805C326.779 228.921 327.252 229.1 327.703 229.336C327.703 230.299 328.399 229.539 321.354 230.793C322.411 232.784 323.353 234.772 324.528 236.63C325.139 237.321 327.156 236.842 331.933 237.161C332.395 237.161 334.56 238.03 333.932 238.751C331.346 239.016 328.758 239.282 326.05 239.547C326.252 240.543 326.527 241.518 326.871 242.464C329.936 252.012 329.811 252.41 325.338 243.659C324.463 242.338 323.696 240.078 322.519 240.078C319.453 240.609 316.522 241.14 313.349 241.668C314.173 243.923 315.701 248.433 316.169 250.157C317.229 253.338 315.464 250.422 315.348 250.288C312.366 245.526 311.497 242.597 310.175 242.597C306.648 243.392 303.239 244.326 299.712 245.116C300.771 247.238 301.711 249.229 302.652 251.217C303.475 252.677 302.534 252.41 302.063 251.614C301.358 250.686 300.531 249.886 299.83 248.962C299.011 247.897 298.297 246.178 297.363 245.912C296.121 245.447 294.772 246.769 290.779 247.769C291.513 245.793 293.746 245.395 295.745 244.069ZM288.338 225.369C292.099 224.31 295.745 223.114 299.388 222.055C298.448 219.666 297.391 217.414 296.323 214.761C292.443 215.556 288.441 216.49 284.215 217.414C285.752 220.197 287.037 222.85 288.338 225.369ZM293.275 235.316C294.808 237.968 296.215 240.488 297.625 242.876C297.72 243.013 297.851 243.112 297.999 243.159C298.147 243.207 298.304 243.2 298.448 243.14C301.857 242.078 305.384 241.019 308.909 239.826C307.736 237.571 306.56 235.449 305.384 233.327C305.299 233.175 305.175 233.055 305.028 232.984C304.881 232.913 304.718 232.894 304.561 232.93C300.916 233.725 297.273 234.52 293.275 235.316ZM303.856 230.675C302.915 228.817 301.857 226.97 300.916 225.105C300.496 224.154 298.803 225.211 289.279 227.227C290.337 229.348 291.16 230.932 292.099 232.66C292.336 232.927 292.806 233.325 293.159 233.192C296.684 232.399 300.211 231.603 303.856 230.675ZM307.499 232.265C310.505 237.815 311.123 239.428 311.85 239.428C314.915 238.897 317.962 238.233 321.135 237.571C320.077 235.58 319.138 233.725 318.07 231.868C317.739 231.102 316.866 231.174 307.499 232.265ZM298.448 214.494C301.932 221.699 300.885 221.756 305.032 221.259C307.265 220.99 309.498 220.728 311.85 220.462C310.908 218.473 309.995 216.596 309.028 214.892C308.913 214.681 308.759 214.501 308.576 214.363C308.394 214.226 308.187 214.135 307.97 214.097C304.911 214.163 301.857 214.364 298.448 214.494ZM303.033 224.043C304.09 226.165 305.032 227.889 306.098 229.613C306.21 229.775 306.352 229.906 306.514 229.998C306.677 230.09 306.856 230.14 307.037 230.144C310.212 229.746 313.268 229.215 316.559 228.817C312.316 221.652 315.655 223.025 303.033 224.043Z" fill="white"/>
<path d="M275.055 202.03C274.703 200.837 275.526 200.172 276.349 199.908C288.297 194.943 300.527 195.887 302.797 198.448C303.82 199.602 302.692 200.298 301.976 200.041C293.435 196.974 283.546 199.636 275.055 202.03Z" fill="white"/>
<path d="M36.1849 177.629C39.9298 177.668 43.5808 178.955 46.6786 181.33C49.7764 183.704 52.1827 187.058 53.5947 190.971C55.0067 194.884 55.3614 199.181 54.6141 203.321C53.8668 207.461 52.0509 211.259 49.3949 214.237C46.7389 217.216 43.3614 219.242 39.6873 220.06C36.0132 220.879 32.2066 220.453 28.7465 218.837C25.2863 217.22 22.3271 214.486 20.2412 210.977C18.1552 207.468 17.0357 203.342 17.0234 199.117C17.0483 193.404 19.0787 187.936 22.6701 183.908C26.2614 179.881 31.121 177.623 36.1849 177.629ZM33.365 195.797C33.365 195.664 29.4854 187.044 27.4865 182.403C25.6058 184.391 23.9594 186.108 22.0787 187.973C25.9583 190.756 33.2467 195.797 33.365 195.797ZM21.3737 208.658C23.2544 210.913 24.9008 212.768 26.6633 214.89C29.1329 210.382 33.8357 201.762 33.8357 201.629C33.5073 202.012 25.5204 206.322 21.3737 208.658ZM20.5505 206.929C24.9008 204.41 32.776 199.767 32.776 199.636C28.3097 199.369 23.8434 199.238 19.0223 198.971C19.4952 201.765 19.9638 204.151 20.5505 206.929ZM51.1143 208.387C51.8214 205.736 52.5264 203.348 53.2314 200.829C48.4148 200.564 39.4777 200.164 39.3595 200.298C43.2391 202.958 47.0004 205.61 51.1143 208.394V208.387ZM37.9495 180.007C37.7131 185.441 37.3606 195.523 37.4788 195.523C39.8302 191.28 42.1816 187.037 44.7673 182.396C42.4159 181.608 40.2944 180.81 37.9495 180.007ZM35.2456 195.126C35.3639 195.126 35.8324 185.179 36.0689 179.877C33.7175 180.405 31.4843 181.069 29.1329 181.605C31.2478 186.38 33.2467 190.756 35.2456 195.133V195.126ZM50.0568 210.244C46.1772 207.46 38.7727 202.419 38.6545 202.553C40.6534 206.796 42.6501 211.039 44.649 215.549C46.5297 213.845 48.1761 212.116 50.0568 210.251V210.244ZM32.071 197.912C32.071 197.778 25.0191 192.478 21.1395 189.689C20.4345 192.209 19.7273 194.595 19.0223 197.116C23.7251 197.388 27.9572 197.652 32.071 197.919V197.912ZM51.9375 191.544C47.8236 193.799 43.9441 195.921 40.1827 198.043C40.1827 198.176 48.7651 198.707 53.3496 198.971C52.8789 196.326 52.4082 193.94 51.9375 191.552V191.544ZM43.0048 216.478C40.8877 211.968 36.8921 203.612 36.8921 203.612C36.7738 208.256 36.5374 213.03 36.4213 218.069C38.6545 217.55 40.6534 217.014 43.0048 216.485V216.478ZM46.4246 183.73C44.0732 187.973 41.8401 191.818 39.4887 195.664C39.6047 195.797 47.0114 191.552 51.0092 189.299C49.3518 187.442 47.9419 185.584 46.4246 183.73ZM34.3152 217.943C34.6677 213.037 35.0201 203.753 34.9041 203.753C32.6709 207.599 30.5538 211.578 28.0864 215.821C30.3086 216.616 32.1937 217.281 34.3042 217.943H34.3152Z" fill="white"/>
<path d="M346.762 147.127C348.526 147.127 350.173 146.996 351.817 147.127C352.758 147.26 355.101 150.31 355.815 150.972C354.282 150.708 350.878 150.046 350.641 149.913C349.466 149.117 348.29 148.189 346.762 147.127Z" fill="white"/>
<path d="M232.147 141.823C230.032 142.087 228.27 142.369 226.505 142.618C222.512 143.184 218.512 143.547 214.514 144.075C214.043 144.075 213.338 144.075 213.104 143.678C210.987 140.894 208.872 137.977 206.521 134.786C208.99 134.388 219.698 132.741 222.744 132.133C223.283 131.971 223.853 131.998 224.379 132.211C224.904 132.424 225.358 132.813 225.682 133.326C227.547 136.001 229.796 138.772 232.147 141.823Z" fill="#ED6A6D"/>
<path d="M284.928 133.999C284.985 134.048 285.026 134.117 285.045 134.195C285.064 134.272 285.059 134.355 285.033 134.43C285.006 134.505 284.959 134.568 284.898 134.609C284.837 134.651 284.765 134.669 284.694 134.661C283.098 134.873 276.486 136.034 269.647 136.652C267.713 136.652 269.082 136.834 261.419 127.76C261.362 127.711 261.322 127.642 261.303 127.564C261.284 127.487 261.288 127.404 261.314 127.329C261.341 127.254 261.388 127.191 261.449 127.15C261.511 127.108 261.582 127.09 261.653 127.098C276.541 124.781 276.541 124.275 277.053 124.843C279.757 127.893 282.312 130.981 284.928 133.999Z" fill="#ED6A6D"/>
<path d="M242.962 129.488C248.389 128.723 255.393 127.987 258.126 127.5C258.665 127.384 259.223 127.433 259.739 127.643C260.256 127.853 260.714 128.215 261.064 128.693C263.111 131.435 265.296 134.127 267.531 137.049C264.181 137.587 264.674 137.409 251.66 139.17C251.167 139.18 250.681 139.043 250.25 138.773C247.781 135.987 245.434 133.07 242.962 130.153V129.488Z" fill="#ED6A6D"/>
<path d="M249.193 139.568C245.196 140.099 241.312 140.358 237.436 141.297C236.088 141.71 234.654 141.593 233.372 140.965C232.091 140.336 231.037 139.234 230.384 137.839C229.097 135.905 227.724 134.046 226.268 132.269C226.224 132.203 226.195 132.126 226.184 132.045C226.172 131.963 226.178 131.88 226.201 131.802C226.224 131.723 226.264 131.652 226.317 131.595C226.37 131.538 226.435 131.497 226.505 131.474C240.837 129.745 238.785 129.898 240.377 129.745C241.082 129.745 241.436 130.271 241.909 130.805C244.513 133.533 246.947 136.461 249.193 139.568Z" fill="#ED6A6D"/>
<path d="M190.299 137.58C194.294 136.915 196.534 136.441 201.349 135.722C204.173 135.3 205.34 134.058 206.754 136.782C209.047 141.198 210.288 141.369 212.046 144.342C205.219 145.197 202.076 145.792 197.94 146.2C196.144 146.2 195.969 145.365 190.181 138.108C190.134 138.077 190.097 138.03 190.076 137.973C190.055 137.916 190.051 137.854 190.064 137.794C190.078 137.735 190.108 137.682 190.15 137.643C190.192 137.604 190.244 137.582 190.299 137.58Z" fill="#ED6A6D"/>
</svg>
