<svg width="361" height="45" viewBox="0 0 361 45" fill="none" xmlns="http://www.w3.org/2000/svg">
<g filter="url(#filter0_d_255_3700)">
<path d="M67.4292 36.9186V0.451904H69.9545V34.394H90.4377V36.9186H67.4292Z" fill="#FAFAFA"/>
<path d="M150.711 36.9186H147.344L134.265 21.3813L122.48 37.5419V0.451904H125.005V29.6798L146.276 0.451904H149.471L135.777 19.1917L150.703 36.9186H150.711Z" fill="#FAFAFA"/>
<path d="M182.02 36.9186V0.451904H184.545V36.9186H182.02Z" fill="#FAFAFA"/>
<path d="M253.571 36.9186V8.08033L237.406 31.1369L221.022 8.02578V36.9186H218.497V0L237.406 26.7033L256.096 0V36.9186H253.571Z" fill="#FAFAFA"/>
<path d="M290.048 36.9186V0.451904H292.573V36.9186H290.048Z" fill="#FAFAFA"/>
<path d="M330.734 27.6617L326.416 36.9186H323.61L340.78 0L357 36.9186H354.249L350.149 27.6617H330.734ZM340.663 6.23362L331.91 25.1371H349.027L340.663 6.23362V6.23362Z" fill="#FAFAFA"/>
<path d="M32.2151 25.6671L21.1707 0.530029L9.47933 25.6671L4 37.4486H37.3904L32.2151 25.6671V25.6671ZM7.85034 35.1032L12.0436 25.6671L20.8667 5.8364L31.2018 29.5631L33.618 35.0954H7.85034V35.1032Z" fill="#FAFAFA"/>
<path d="M31.0927 34.0902H10.0249L14.1558 25.2696C14.6547 24.8878 15.5354 24.319 16.7435 24.1398C17.1878 24.0696 18.0685 23.9839 19.9314 24.5761L20.0483 24.6151C22.6048 25.441 23.0101 26.228 24.9508 26.828C25.7692 27.0852 26.9929 27.3423 28.6219 27.2644L31.0927 34.0902Z" fill="#ED6A6D"/>
<path d="M28.6219 27.2644C26.993 27.3424 25.7693 27.0852 24.9509 26.8281C23.0101 26.2281 22.6048 25.4411 20.0483 24.6151L19.9314 24.5762C22.6282 25.371 24.0312 24.9658 24.8106 24.397C25.2704 24.0619 25.8862 23.3996 26.7124 23.4775C26.8682 23.4931 27.0241 23.5321 27.1566 23.5944L27.7958 24.9814L28.6219 27.2644V27.2644Z" fill="#5EBFBC"/>
</g>
<defs>
<filter id="filter0_d_255_3700" x="0.425317" y="0" width="360.149" height="45.5771" filterUnits="userSpaceOnUse" color-interpolation-filters="sRGB">
<feFlood flood-opacity="0" result="BackgroundImageFix"/>
<feColorMatrix in="SourceAlpha" type="matrix" values="0 0 0 0 0 0 0 0 0 0 0 0 0 0 0 0 0 0 127 0" result="hardAlpha"/>
<feOffset dy="3.57468"/>
<feGaussianBlur stdDeviation="1.78734"/>
<feComposite in2="hardAlpha" operator="out"/>
<feColorMatrix type="matrix" values="0 0 0 0 0 0 0 0 0 0 0 0 0 0 0 0 0 0 0.25 0"/>
<feBlend mode="normal" in2="BackgroundImageFix" result="effect1_dropShadow_255_3700"/>
<feBlend mode="normal" in="SourceGraphic" in2="effect1_dropShadow_255_3700" result="shape"/>
</filter>
</defs>
</svg>
