<svg width="156" height="156" viewBox="0 0 156 156" fill="none" xmlns="http://www.w3.org/2000/svg">
<g opacity="0.9" filter="url(#filter0_b_313_3322)">
<path d="M78.099 0C35.148 0 0.183196 34.9313 0.167594 77.8781C0.159794 91.6061 3.75582 105.008 10.5737 116.817L0 156L40.8169 146.357C52.1982 152.565 65.0104 155.825 78.0533 155.832H78.0838C121.027 155.832 155.977 120.893 156 77.9543C156.016 57.1361 147.919 37.5627 133.207 22.8363C118.495 8.11773 98.9426 0.0078 78.099 0ZM78.0838 15.6C94.7462 15.6078 110.405 22.1036 122.176 33.866C133.948 45.644 140.414 61.2939 140.398 77.9391C140.383 112.29 112.439 140.232 78.0685 140.232C67.6701 140.225 57.37 137.614 48.2977 132.661L43.0413 129.797L37.2364 131.168L21.8787 134.794L25.6267 120.87L27.3179 114.623L24.0879 109.017C18.643 99.5948 15.7613 88.8215 15.7691 77.8781C15.7847 43.5425 43.737 15.6 78.0838 15.6ZM50.5221 41.925C49.2194 41.925 47.1131 42.4125 45.3267 44.3625C43.5403 46.3047 38.501 51.0087 38.501 60.5871C38.501 70.1655 45.479 79.4244 46.4541 80.727C47.4214 82.0218 59.9235 102.299 79.714 110.099C96.158 116.581 99.4978 115.301 103.071 114.974C106.643 114.654 114.597 110.274 116.219 105.727C117.842 101.179 117.845 97.2675 117.362 96.4641C116.878 95.6529 115.579 95.1691 113.629 94.1941C111.687 93.2191 102.115 88.5193 100.328 87.8719C98.5418 87.2245 97.2351 86.8969 95.9402 88.8469C94.6453 90.7969 90.9238 95.1693 89.7849 96.4641C88.646 97.7667 87.5148 97.9418 85.5646 96.9668C83.6144 95.984 77.3441 93.923 69.9021 87.293C64.114 82.1372 60.2083 75.7758 59.0694 73.8258C57.9383 71.8836 58.9628 70.8168 59.9379 69.8496C60.8116 68.976 61.8728 67.5759 62.8479 66.4371C63.8152 65.2983 64.1507 64.487 64.7981 63.1922C65.4456 61.8974 65.1142 60.7547 64.6305 59.7797C64.1469 58.8047 60.3594 49.1907 58.6276 45.3375C57.1688 42.1005 55.6282 42.0253 54.2397 41.9707C53.1086 41.9239 51.817 41.925 50.5221 41.925Z" fill="white" fill-opacity="0.6"/>
</g>
<defs>
<filter id="filter0_b_313_3322" x="-4" y="-4" width="164" height="164" filterUnits="userSpaceOnUse" color-interpolation-filters="sRGB">
<feFlood flood-opacity="0" result="BackgroundImageFix"/>
<feGaussianBlur in="BackgroundImage" stdDeviation="2"/>
<feComposite in2="SourceAlpha" operator="in" result="effect1_backgroundBlur_313_3322"/>
<feBlend mode="normal" in="SourceGraphic" in2="effect1_backgroundBlur_313_3322" result="shape"/>
</filter>
</defs>
</svg>
